<svg width="19" height="16" viewBox="0 0 19 16" fill="none" xmlns="http://www.w3.org/2000/svg">
<path fill-rule="evenodd" clip-rule="evenodd" d="M7.42134 0.0794332C7.31598 0.133234 6.00447 1.45495 3.66876 3.86127C0.376477 7.25299 0.0741272 7.57592 0.0305584 7.74716C-0.0244695 7.96319 -0.00507404 8.1766 0.0878944 8.37822C0.125147 8.45903 1.70286 10.1132 3.74686 12.2146C7.59319 16.1689 7.41025 15.9984 7.8082 15.9991C7.99823 15.9994 8.35054 15.8153 8.45845 15.6593C8.60969 15.4407 8.66435 15.1781 8.61305 14.9165L8.56794 14.6866L5.77775 11.8104C4.24313 10.2285 2.98753 8.92073 2.98753 8.90418C2.98753 8.88764 5.30004 8.86918 8.12646 8.86318L13.2654 8.8523L13.441 8.72544C13.9993 8.32196 13.9216 7.45319 13.3035 7.18736C13.1708 7.13031 12.5668 7.12285 8.0705 7.12285C5.27485 7.12285 2.98753 7.10897 2.98753 7.09201C2.98753 7.07505 4.24329 5.767 5.77816 4.18528C8.71582 1.15782 8.65589 1.22683 8.65589 0.871814C8.65589 0.556637 8.43541 0.207538 8.15306 0.0755574C7.93445 -0.0266261 7.62587 -0.0250008 7.42134 0.0794332ZM15.1957 7.19198C14.5295 7.55279 14.5245 8.44452 15.1867 8.79504C15.3315 8.87168 15.4218 8.87534 16.894 8.86413L18.4484 8.8523L18.6239 8.72544C19.1822 8.32188 19.1045 7.45315 18.4864 7.18736C18.2607 7.0903 15.3759 7.09438 15.1957 7.19198Z" fill="black"/>
</svg>
