<svg width="34" height="34" viewBox="0 0 34 34" fill="none" xmlns="http://www.w3.org/2000/svg">
<rect x="0.5" y="0.5" width="32.0812" height="32.0812" rx="9.5" fill="#202020" stroke="#E2EEF7"/>
<path d="M12.8281 24.5C12.3698 24.5 11.9773 24.3367 11.6506 24.01C11.324 23.6833 11.1609 23.2911 11.1615 22.8333V12C10.9254 12 10.7273 11.92 10.5673 11.76C10.4073 11.6 10.3276 11.4022 10.3281 11.1667C10.3281 10.9306 10.4081 10.7325 10.5681 10.5725C10.7281 10.4125 10.9259 10.3328 11.1615 10.3333H14.4948C14.4948 10.0972 14.5748 9.89917 14.7348 9.73917C14.8948 9.57917 15.0926 9.49945 15.3281 9.5H18.6615C18.8976 9.5 19.0956 9.58 19.2556 9.74C19.4156 9.9 19.4954 10.0978 19.4948 10.3333H22.8281C23.0642 10.3333 23.2623 10.4133 23.4223 10.5733C23.5823 10.7333 23.662 10.9311 23.6615 11.1667C23.6615 11.4028 23.5815 11.6008 23.4215 11.7608C23.2615 11.9208 23.0637 12.0006 22.8281 12V22.8333C22.8281 23.2917 22.6648 23.6842 22.3381 24.0108C22.0115 24.3375 21.6192 24.5006 21.1615 24.5H12.8281ZM14.4948 20.3333C14.4948 20.5694 14.5748 20.7675 14.7348 20.9275C14.8948 21.0875 15.0926 21.1672 15.3281 21.1667C15.5642 21.1667 15.7623 21.0867 15.9223 20.9267C16.0823 20.7667 16.162 20.5689 16.1615 20.3333V14.5C16.1615 14.2639 16.0815 14.0658 15.9215 13.9058C15.7615 13.7458 15.5637 13.6661 15.3281 13.6667C15.092 13.6667 14.894 13.7467 14.734 13.9067C14.574 14.0667 14.4942 14.2644 14.4948 14.5V20.3333ZM17.8281 20.3333C17.8281 20.5694 17.9081 20.7675 18.0681 20.9275C18.2281 21.0875 18.4259 21.1672 18.6615 21.1667C18.8976 21.1667 19.0956 21.0867 19.2556 20.9267C19.4156 20.7667 19.4954 20.5689 19.4948 20.3333V14.5C19.4948 14.2639 19.4148 14.0658 19.2548 13.9058C19.0948 13.7458 18.897 13.6661 18.6615 13.6667C18.4254 13.6667 18.2273 13.7467 18.0673 13.9067C17.9073 14.0667 17.8276 14.2644 17.8281 14.5V20.3333Z" fill="white"/>
</svg>
