<svg width="20" height="20" viewBox="0 0 20 20" fill="none" xmlns="http://www.w3.org/2000/svg">
<path d="M13.0808 10.337L10.3083 13.1962C10.2693 13.2393 10.2217 13.2737 10.1686 13.2973C10.1155 13.3208 10.0581 13.333 9.99998 13.333C9.94188 13.333 9.88442 13.3208 9.83131 13.2973C9.77821 13.2737 9.73063 13.2393 9.69164 13.1962L4.33331 7.67119C3.99915 7.32619 4.20164 6.66702 4.64165 6.66702L9.41081 6.66702L13.0808 10.337Z" fill="url(#paint0_radial_812_759)"/>
<path opacity="0.5" d="M10.5892 6.66676L15.3584 6.66676C15.7984 6.66676 16.0009 7.32593 15.6667 7.67093L13.6617 9.73926L10.5892 6.66676Z" fill="url(#paint1_radial_812_759)"/>
<defs>
<radialGradient id="paint0_radial_812_759" cx="0" cy="0" r="1" gradientTransform="matrix(-8.91402 -6.85828 -4.42061 129.403 13.0808 15.6405)" gradientUnits="userSpaceOnUse">
<stop stop-color="#4A1B61"/>
<stop offset="0.725859" stop-color="#CC6ACF"/>
<stop offset="1" stop-color="#4A1B61"/>
</radialGradient>
<radialGradient id="paint1_radial_812_759" cx="0" cy="0" r="1" gradientTransform="matrix(-5.24402 -3.16113 -2.6006 59.6445 15.8333 10.8028)" gradientUnits="userSpaceOnUse">
<stop stop-color="#4A1B61"/>
<stop offset="0.725859" stop-color="#CC6ACF"/>
<stop offset="1" stop-color="#4A1B61"/>
</radialGradient>
</defs>
</svg>
