<svg width="34" height="34" viewBox="0 0 34 34" fill="none" xmlns="http://www.w3.org/2000/svg">
<rect x="0.5" y="0.5" width="32.0812" height="32.0812" rx="9.5" fill="#202020" stroke="#E2EEF7"/>
<path d="M20.2421 9.19391C20.8013 8.63463 21.5597 8.32039 22.3506 8.32031C23.1415 8.32023 23.9 8.63433 24.4592 9.19349C25.0185 9.75266 25.3327 10.5111 25.3328 11.3019C25.3329 12.0928 25.0188 12.8513 24.4596 13.4106L23.7163 14.1547L19.4996 9.93724L20.2421 9.19391ZM18.6163 10.8214L10.283 19.1539C9.94426 19.4923 9.70624 19.9181 9.59548 20.3839L8.68298 24.2189C8.65827 24.3228 8.66059 24.4313 8.68971 24.534C8.71883 24.6367 8.77378 24.7303 8.84932 24.8057C8.92486 24.8812 9.01847 24.936 9.12123 24.965C9.22399 24.994 9.33246 24.9962 9.43631 24.9714L13.2705 24.0581C13.7366 23.9475 14.1627 23.7094 14.5013 23.3706L22.833 15.0381L18.6163 10.8214Z" fill="white"/>
</svg>
