<svg width="44" height="44" viewBox="0 0 44 44" fill="none" xmlns="http://www.w3.org/2000/svg">
<path d="M23.1186 0C23.7646 0.105799 24.4132 0.190439 25.0538 0.320043C25.4535 0.399393 25.848 0.542222 26.2927 0.674471C22.4197 2.95709 21.8664 6.86109 22.9201 9.63568C23.8837 12.1696 26.8302 14.2961 29.0962 14.0978C28.8845 11.4528 27.5635 9.53253 25.2312 8.13862C27.9783 7.2535 30.9343 7.2535 33.6814 8.13862C31.3597 9.54311 30.0228 11.4528 29.8137 14.156C32.5113 13.992 34.4676 12.7224 35.8628 10.453C36.8911 13.0786 36.8911 15.9951 35.8628 18.6207C34.4756 16.3513 32.5192 15.0738 29.8745 14.9177C29.7845 17.0496 31.3412 20.1045 34.5259 21.2419C37.3479 22.2496 41.1097 21.5064 43.2276 17.9409C44.2575 20.559 44.2575 23.4694 43.2276 26.0875C41.0356 22.4136 37.1785 21.8185 34.4915 22.8051C31.3888 23.9424 29.819 26.8889 29.8719 29.0975C31.0939 29.0633 32.2836 28.6976 33.3134 28.0395C34.3508 27.3749 35.2097 26.4669 35.8151 25.3945C36.8462 28.026 36.8462 30.9492 35.8151 33.5807C34.9976 32.1129 33.7005 30.97 32.1407 30.3433C31.4024 30.053 30.6198 29.8911 29.8269 29.8645C30.0334 32.5439 31.3518 34.4642 33.5834 35.8634C30.91 36.7507 28.0211 36.7507 25.3477 35.8634C26.4141 35.2343 27.3202 34.367 27.995 33.3295C28.6747 32.3162 29.0537 31.1315 29.0883 29.9121C26.7534 29.7243 23.7619 31.8906 22.8459 34.4668C21.7711 37.4874 22.5997 41.1798 26.1524 43.272C24.8526 44.1713 19.7618 44.2982 17.9458 43.309C21.1887 41.1798 22.4647 38.265 21.2523 34.5118C20.384 31.8271 17.6678 29.9333 14.8802 29.883C15.0787 32.528 16.3997 34.4536 18.74 35.8766C16.0279 36.7602 13.105 36.7602 10.393 35.8766C11.4581 35.2492 12.364 34.3848 13.0403 33.3506C13.7325 32.3264 14.1132 31.1239 14.1363 29.8883C11.5287 30.1026 9.63587 31.3801 8.31222 33.5463C7.30095 32.044 7.27447 28.1136 8.27515 25.4051C9.62263 27.6004 11.5049 28.8991 14.0807 29.1081C14.2263 27.2566 12.8126 24.318 10.0594 23.0616C8.41129 22.288 6.52782 22.18 4.80189 22.7601C3.02554 23.3288 1.72307 24.5031 0.767389 26.1007C-0.25712 24.0614 -0.254472 19.8665 0.767389 17.9965C1.63898 19.5206 3.0337 20.6776 4.69339 21.2534C6.35307 21.8291 8.16533 21.7846 9.79471 21.1281C12.72 19.8876 14.2078 16.9676 14.1045 14.9521C12.9154 15.0329 11.7669 15.4172 10.7689 16.0683C9.76862 16.7277 8.94151 17.6176 8.35722 18.663C7.32396 16.0273 7.32396 13.0992 8.35722 10.4636C9.68087 12.6563 11.5605 13.9258 14.1813 14.1665C13.9748 11.4766 12.6512 9.56162 10.3189 8.16242C13.0336 7.27877 15.9598 7.28433 18.6711 8.17829C17.6058 8.80418 16.6997 9.66779 16.0238 10.7016C15.3364 11.7045 14.9414 12.8784 14.8828 14.0925C17.0669 14.4363 20.2039 12.2992 21.2231 9.73619C22.425 6.71562 21.6176 2.83807 17.8531 0.655956C18.4673 0.499902 18.9809 0.349138 19.5024 0.240694C20.0239 0.132249 20.5137 0.0793496 21.022 0H23.1186ZM14.912 14.9309C14.9278 18.425 18.2582 21.6307 21.6255 21.5434C21.7341 18.7741 18.9623 14.9336 14.904 14.9309H14.912ZM21.6202 22.4057C17.4507 22.5141 14.7505 26.4234 14.949 29.0631C18.912 28.9626 21.7129 25.339 21.6123 22.4057H21.6202ZM29.0592 29.0314C29.0592 25.4897 25.6362 22.4057 22.523 22.4533C22.425 25.5664 25.5939 29.116 29.0512 29.0314H29.0592ZM29.0804 14.9389C25.2815 15.0447 22.4118 18.6207 22.5336 21.5513C25.6839 21.4932 28.9453 18.626 29.0724 14.9389H29.0804Z" fill="white"/>
</svg>
