<svg width="229" height="44" viewBox="0 0 229 44" fill="none" xmlns="http://www.w3.org/2000/svg">
<path d="M20.8705 21.0305V21.18H15.0415C14.0493 21.1965 13.0597 21.0737 12.1016 20.8151C10.0919 20.1647 8.4101 18.7651 7.40542 16.9071C6.87898 15.961 6.59839 14.8979 6.58936 13.8152C6.60838 12.5956 6.9588 11.4041 7.6031 10.3685C8.30564 9.20151 9.30295 8.24003 10.4948 7.58065C11.792 6.85175 13.2597 6.48089 14.7475 6.50609C16.2979 6.52972 17.8296 6.84794 19.2612 7.4438L19.8593 9.11141H19.7148C19.1567 8.43282 18.45 7.89172 17.6493 7.52997C16.7375 7.09803 15.7386 6.88126 14.7297 6.89638C13.8553 6.87218 12.987 7.04823 12.1911 7.41105C11.3952 7.77387 10.6927 8.31387 10.1375 8.98976C8.95476 10.3938 8.36341 12.1366 8.36341 14.2182C8.35163 14.9986 8.45061 15.7768 8.6574 16.5295C8.88458 17.2656 9.2607 17.9471 9.76238 18.5316C10.2327 19.1328 10.8242 19.6285 11.4984 19.9864C12.1534 20.3089 12.8545 20.5278 13.5766 20.6352C14.1789 20.7422 14.7896 20.7957 15.4013 20.7948L16.1769 20.7771C17.0537 20.7441 17.6037 20.6605 17.8217 20.5236C18.0396 20.3868 18.1511 20.0599 18.1511 19.5226V17.3329C18.1511 16.9071 18.0624 16.6207 17.8977 16.4737C17.6786 16.3139 17.4062 16.2449 17.1374 16.2811V16.1468H20.8705V16.2938C20.4523 16.2938 20.1735 16.3749 20.0316 16.5472C19.8897 16.7196 19.8213 17.0237 19.8213 17.4875V19.7684C19.7978 20.1069 19.8597 20.4459 20.0012 20.7543C20.0752 20.8586 20.1759 20.9411 20.2927 20.9933C20.4095 21.0455 20.5381 21.0653 20.6652 21.0508L20.8705 21.0305Z" fill="white"/>
<path d="M21.9907 6.88358V6.71631H31.0815V8.71086H30.9345C30.7393 7.97082 30.5721 7.53491 30.4276 7.40312C30.2832 7.27134 29.9664 7.20798 29.4418 7.20798H24.6797V13.6985H29.1098C29.3936 13.7255 29.6799 13.6829 29.9436 13.5743C30.0013 13.5344 30.0484 13.481 30.0806 13.4187C30.1129 13.3564 30.1294 13.2871 30.1286 13.217H30.2756V14.5804H30.1286C30.1219 14.5033 30.0977 14.4287 30.0577 14.3623C30.0177 14.296 29.9631 14.2397 29.8979 14.1978C29.6841 14.1157 29.4547 14.0819 29.2263 14.0989H24.6797V18.567C24.6538 19.0601 24.7173 19.5538 24.8672 20.0242C24.9139 20.1584 24.9921 20.2793 25.0953 20.3767C25.1985 20.4742 25.3237 20.5454 25.4603 20.5843C25.8644 20.6741 26.2782 20.7124 26.692 20.6984H29.239C29.7583 20.7178 30.2783 20.6898 30.7926 20.6148C31.0131 20.5638 31.2134 20.4482 31.3679 20.2828C31.525 20.118 31.6441 19.7556 31.7303 19.1955H31.8773V21.1799H21.9933V21.0304C22.2585 21.0311 22.5198 20.9658 22.7536 20.8403C22.9259 20.7313 23.007 20.4526 23.007 20.0014V8.32563C23.0283 7.9479 22.982 7.5694 22.8701 7.20798C22.7814 6.99255 22.4875 6.88358 21.9907 6.88358Z" fill="white"/>
<path d="M46.1076 6.71631H48.3886V6.8633C47.6283 6.90385 47.2304 7.30682 47.2304 8.07219C47.2357 8.29885 47.256 8.52491 47.2912 8.74887L48.8118 19.7049C48.8454 20.0715 48.9504 20.428 49.121 20.7541C49.2149 20.846 49.3264 20.9178 49.4488 20.9653C49.5712 21.0128 49.702 21.0349 49.8332 21.0304V21.1799H46.5841V21.0304C46.6708 21.0471 46.7603 21.0429 46.845 21.0179C46.9297 20.993 47.0072 20.9481 47.071 20.8871C47.1347 20.826 47.183 20.7505 47.2116 20.667C47.2402 20.5835 47.2484 20.4943 47.2354 20.4069C47.226 20.2142 47.2057 20.0221 47.1746 19.8316L45.692 9.21012L40.5067 21.1799H40.4104L35.1947 9.2304L33.7298 19.9127C33.7007 20.0963 33.6872 20.2819 33.6893 20.4678C33.6893 20.8428 33.9098 21.0304 34.3507 21.0304V21.1799H32.1433V21.0304C32.3644 21.0558 32.5881 21.0134 32.7845 20.9087C32.8952 20.8025 32.972 20.6658 33.005 20.5159C33.0622 20.3187 33.102 20.1169 33.1241 19.9127L34.7765 8.22932C34.5079 7.58053 34.2392 7.19277 33.9706 7.06098C33.7297 6.9365 33.4636 6.86888 33.1925 6.8633V6.71631H35.9195L41.006 18.5467L46.1076 6.71631Z" fill="white"/>
<path d="M64.1726 14.5222H59.9276L57.7379 19.9813C57.6344 20.214 57.5587 20.4581 57.5123 20.7086C57.5123 20.924 57.6745 21.0305 57.9939 21.0305V21.18H55.8447V21.0305C56.1027 21.0401 56.3568 20.9663 56.5696 20.8201C56.7647 20.6807 56.9827 20.3133 57.2184 19.7253L62.4594 6.50098H62.7128L67.8677 19.2716C67.9712 19.5934 68.1044 19.9047 68.2656 20.2017C68.358 20.4471 68.5235 20.6581 68.7397 20.8063C68.9559 20.9545 69.2124 21.0328 69.4745 21.0305V21.18H66.1038V21.0305C66.413 21.0305 66.5651 20.9114 66.5651 20.6681C66.5353 20.3952 66.459 20.1295 66.3395 19.8824C66.308 19.8455 66.2847 19.8023 66.2711 19.7557C66.2576 19.6898 66.2474 19.6569 66.2407 19.6569L64.1726 14.5222ZM60.0644 14.1193H63.975L62.0235 9.18994L60.0644 14.1193Z" fill="white"/>
<path d="M70.3665 6.8633V6.71631H74.4696C75.5087 6.71631 76.2639 6.73912 76.7277 6.78474C77.2293 6.84222 77.7149 6.99719 78.1571 7.24092C78.6188 7.47808 79.0024 7.84323 79.2621 8.29268C79.523 8.79438 79.6513 9.35449 79.6346 9.91974C79.6287 10.67 79.3974 11.4011 78.9706 12.0182C78.4889 12.7197 77.848 13.2973 77.1003 13.7035L78.114 15.2723C78.337 15.6643 78.9284 16.5243 79.8881 17.8523C80.8477 19.1803 81.5895 19.9896 82.1132 20.2802C82.5741 20.5544 83.0977 20.7054 83.6338 20.7187C84.2302 20.6826 84.8064 20.4894 85.304 20.1586L85.3623 20.3537C84.5766 20.9941 83.5561 21.3151 82.3008 21.3168C81.5164 21.334 80.7516 21.0706 80.144 20.5742C79.5425 20.0775 78.4958 18.7174 77.004 16.4939C76.9979 16.4896 76.9928 16.4839 76.9893 16.4773C76.9858 16.4707 76.9839 16.4633 76.9837 16.4559L75.5239 14.218L74.2364 14.256H73.0656V19.786C73.0416 20.1142 73.1018 20.4431 73.2404 20.7415C73.357 20.9341 73.6383 21.0304 74.0869 21.0304V21.1799H70.3665V21.0304C70.8302 21.0127 71.1268 20.9138 71.2332 20.7364C71.3397 20.559 71.4055 20.2017 71.4055 19.6568V8.1685C71.4154 7.85281 71.3656 7.53809 71.2586 7.24092C71.1597 6.99509 70.8632 6.87091 70.3665 6.8633ZM73.0757 7.099V13.8835H74.5963C75.7891 13.8835 76.6753 13.6022 77.2549 13.0395C77.5445 12.7493 77.7708 12.4021 77.9195 12.02C78.0683 11.6379 78.1362 11.2291 78.1191 10.8194C78.1133 9.90538 77.8148 9.0172 77.2675 8.28508C76.6998 7.48929 75.7038 7.0914 74.2719 7.0914L73.0757 7.099Z" fill="white"/>
<path d="M94.3898 6.21484L93.703 7.96356H93.556C93.5857 7.82451 93.5994 7.68248 93.5965 7.54031C93.604 7.48114 93.5922 7.42115 93.563 7.36915C93.5338 7.31715 93.4887 7.27587 93.4343 7.2514C93.2702 7.20151 93.0988 7.18008 92.9275 7.18804H89.1487V19.5608C89.1273 19.9133 89.1684 20.2668 89.2704 20.605C89.2975 20.6843 89.3415 20.7568 89.3992 20.8176C89.4569 20.8784 89.5271 20.926 89.6049 20.9572C89.8269 21.0171 90.057 21.0419 90.2867 21.0307V21.1803H86.3685V21.0307C86.8602 20.9978 87.1669 20.904 87.2936 20.7469C87.4203 20.5898 87.4786 20.2628 87.4786 19.7661V7.18804H83.8646C83.6245 7.17402 83.3837 7.19537 83.1499 7.2514C83.0384 7.29364 82.9826 7.40008 82.9826 7.57073C82.9914 7.70456 83.0178 7.83665 83.0612 7.96356H82.9142L82.2249 6.21484H82.3668C82.4325 6.39179 82.5545 6.54226 82.714 6.64315C82.9551 6.70713 83.205 6.73194 83.454 6.71665H93.0491C93.324 6.72701 93.5991 6.70231 93.8677 6.64315C93.9599 6.60811 94.0417 6.55055 94.1059 6.47574C94.1701 6.40093 94.2146 6.31123 94.2352 6.21484H94.3898Z" fill="white"/>
<path d="M102.089 6.90394L102.776 8.71094L102.657 8.72868C102.657 8.72868 102.477 8.531 102.112 8.15085C101.76 7.77929 101.337 7.482 100.868 7.27649C100.367 7.06413 99.8274 6.95881 99.2837 6.9673C98.2953 6.9673 97.5113 7.2503 96.9318 7.81631C96.6525 8.07845 96.4309 8.39595 96.2812 8.74855C96.1316 9.10114 96.0571 9.48107 96.0625 9.86408C96.0522 10.358 96.1947 10.8431 96.4705 11.2529C96.7425 11.6483 97.3094 12.0174 98.1711 12.3604C99.6562 12.8673 100.67 13.2441 101.212 13.4908C101.826 13.7921 102.366 14.2247 102.794 14.7579C103.32 15.4123 103.59 16.2356 103.554 17.0743C103.556 17.453 103.509 17.8304 103.415 18.1971C103.32 18.5611 103.172 18.9088 102.974 19.2285C102.771 19.5597 102.524 19.8623 102.241 20.1282C101.987 20.3792 101.695 20.588 101.375 20.7466C100.929 20.9253 100.457 21.0331 99.9781 21.066C99.3445 21.1369 98.9263 21.1749 98.7236 21.1749H94.8713V16.9755H95.0183C95.0302 18.3711 95.3579 19.3434 96.0017 19.8926C96.6454 20.4417 97.6431 20.7137 98.9947 20.7086C100.226 20.7086 101.162 20.4146 101.798 19.8343C102.1 19.5747 102.343 19.2522 102.508 18.8894C102.674 18.5266 102.758 18.132 102.756 17.7333C102.769 17.2875 102.652 16.8475 102.421 16.4661C102.18 16.0953 101.862 15.7807 101.489 15.5436C100.772 15.1371 100.012 14.8116 99.2228 14.5729C98.4118 14.3188 97.6302 13.979 96.8912 13.5592C96.4072 13.227 96.0192 12.7734 95.766 12.2438C95.4732 11.6926 95.3185 11.0787 95.3149 10.4546C95.3028 9.93114 95.399 9.41086 95.5974 8.92634C95.7959 8.44183 96.0922 8.00352 96.468 7.6389C97.2367 6.88028 98.2463 6.50098 99.4966 6.50098C100.025 6.50545 100.551 6.56147 101.068 6.66825C101.386 6.72042 101.701 6.79236 102.011 6.88366C102.035 6.89658 102.062 6.90353 102.089 6.90394Z" fill="white"/>
<path d="M110.64 6.88358V6.71631H119.733V8.71086H119.584C119.388 7.97082 119.219 7.53491 119.077 7.40312C118.943 7.27134 118.613 7.20798 118.089 7.20798H113.332V13.6985H117.759C118.043 13.7255 118.329 13.6829 118.593 13.5743C118.651 13.5343 118.698 13.4809 118.731 13.4186C118.763 13.3564 118.78 13.2872 118.781 13.217H118.928V14.5804H118.781C118.774 14.5033 118.75 14.4287 118.71 14.3623C118.67 14.296 118.615 14.2397 118.55 14.1978C118.335 14.116 118.105 14.0822 117.876 14.0989H113.332V18.567C113.305 19.0599 113.368 19.5536 113.517 20.0242C113.563 20.1584 113.642 20.2793 113.745 20.3767C113.848 20.4742 113.973 20.5454 114.11 20.5843C114.514 20.6741 114.928 20.7124 115.341 20.6984H117.891C118.41 20.7177 118.93 20.6897 119.445 20.6148C119.664 20.5632 119.863 20.4476 120.017 20.2828C120.174 20.118 120.294 19.7556 120.38 19.1955H120.527V21.1799H110.643V21.0304C110.908 21.0311 111.169 20.9658 111.403 20.8403C111.578 20.7313 111.656 20.4526 111.656 20.0014V8.32563C111.678 7.9479 111.631 7.5694 111.52 7.20798C111.433 6.99255 111.137 6.88358 110.64 6.88358Z" fill="white"/>
<path d="M134.76 6.71631H137.041V6.8633C136.27 6.90385 135.885 7.30682 135.885 8.07219C135.889 8.29881 135.909 8.52488 135.943 8.74887L137.464 19.7049C137.498 20.0715 137.603 20.428 137.773 20.7541C137.867 20.846 137.979 20.9178 138.101 20.9653C138.223 21.0128 138.354 21.0349 138.485 21.0304V21.1799H135.236V21.0304C135.323 21.0473 135.412 21.0431 135.497 21.0181C135.582 20.9932 135.659 20.9483 135.723 20.8871C135.786 20.826 135.834 20.7505 135.862 20.6669C135.891 20.5833 135.899 20.4941 135.885 20.4069C135.876 20.2143 135.856 20.0223 135.827 19.8316L134.342 9.21012L129.156 21.1799H129.06L123.847 9.2304L122.379 19.9127C122.352 20.0964 122.338 20.282 122.339 20.4678C122.339 20.8428 122.559 21.0304 123.003 21.0304V21.1799H120.793V21.0304C121.014 21.0558 121.238 21.0134 121.434 20.9087C121.545 20.8021 121.622 20.6657 121.657 20.5159C121.712 20.3183 121.751 20.1166 121.774 19.9127L123.429 8.22932C123.16 7.58053 122.889 7.19277 122.62 7.06098C122.379 6.9365 122.113 6.86888 121.842 6.8633V6.71631H124.569L129.656 18.5467L134.76 6.71631Z" fill="white"/>
<path d="M139.35 6.8633V6.71631H143.473C144.938 6.71631 146.003 6.8802 146.669 7.20798C147.259 7.47114 147.762 7.89545 148.121 8.43207C148.45 9.02073 148.608 9.6896 148.577 10.3633C148.577 11.5899 148.155 12.5107 147.31 13.1257C146.465 13.7407 145.32 14.0356 143.873 14.0102V13.8657C144.283 13.8826 144.693 13.8163 145.076 13.6708C145.46 13.5253 145.81 13.3037 146.106 13.0193C146.394 12.7288 146.62 12.3818 146.767 12.0002C146.915 11.6186 146.983 11.2106 146.965 10.8017C146.978 10.144 146.835 9.49259 146.547 8.90093C146.293 8.36996 145.884 7.92827 145.374 7.63375C144.867 7.34821 144.098 7.2046 143.068 7.20291H142.036V19.5757C142.036 20.2752 142.115 20.6908 142.272 20.8251C142.54 20.9879 142.854 21.0582 143.166 21.0253V21.1749H139.35V21.0253C140.029 21.0253 140.363 20.7161 140.363 20.0952V8.12795C140.363 7.62108 140.297 7.28147 140.166 7.11421C140.034 6.94694 139.768 6.8633 139.35 6.8633Z" fill="white"/>
<path d="M157.985 6.50098C160.012 6.50098 161.671 7.11767 162.962 8.35106C163.592 8.94166 164.089 9.65849 164.422 10.4547C164.756 11.2508 164.917 12.1084 164.896 12.9712C164.896 15.3484 164.15 17.3481 162.658 18.97C161.166 20.592 159.186 21.4039 156.717 21.4056C154.715 21.4056 153.076 20.7509 151.798 19.4414C151.179 18.8242 150.691 18.0888 150.362 17.2789C150.034 16.4691 149.871 15.6014 149.885 14.7275C149.906 13.4075 150.221 12.1087 150.807 10.926C151.443 9.57029 152.461 8.42992 153.736 7.64511C155.011 6.8603 156.488 6.46526 157.985 6.50858V6.50098ZM157.924 20.6402C158.959 20.6292 159.973 20.3535 160.871 19.8393C161.817 19.3241 162.605 18.5621 163.152 17.6344C163.69 16.7669 163.979 15.7684 163.989 14.7478C164.002 13.3911 163.61 12.0613 162.863 10.9285C162.134 9.79987 161.13 8.87469 159.946 8.23955C158.755 7.59751 157.653 7.27649 156.639 7.27649C155.177 7.28818 153.777 7.86908 152.736 8.89595C152.171 9.40134 151.722 10.0229 151.42 10.718C151.118 11.413 150.969 12.1652 150.985 12.9231C150.969 14.9321 151.736 16.8683 153.124 18.3212C154.551 19.8689 156.151 20.6419 157.924 20.6402Z" fill="white"/>
<path d="M166.351 6.8633V6.71631H170.454C171.494 6.71631 172.247 6.73912 172.712 6.78474C173.213 6.84222 173.699 6.99719 174.141 7.24092C174.603 7.47808 174.987 7.84323 175.246 8.29268C175.507 8.79438 175.635 9.35449 175.619 9.91974C175.613 10.67 175.382 11.4011 174.955 12.0182C174.473 12.7197 173.832 13.2973 173.084 13.7035L174.098 15.2723C174.321 15.6643 174.913 16.5243 175.872 17.8523C176.832 19.1803 177.574 19.9896 178.097 20.2802C178.558 20.5544 179.082 20.7054 179.618 20.7187C180.214 20.6826 180.791 20.4894 181.288 20.1586L181.346 20.3537C180.561 20.9941 179.54 21.3151 178.285 21.3168C177.5 21.334 176.736 21.0706 176.128 20.5742C175.527 20.0775 174.48 18.7174 172.988 16.4939C172.982 16.4896 172.977 16.4839 172.973 16.4773C172.97 16.4707 172.968 16.4633 172.968 16.4559L171.513 14.218L170.226 14.256H169.055V19.786C169.031 20.1142 169.091 20.4431 169.23 20.7415C169.346 20.9341 169.628 21.0304 170.076 21.0304V21.1799H166.351V21.0304C166.814 21.0127 167.111 20.9138 167.22 20.7364C167.329 20.559 167.39 20.2017 167.39 19.6568V8.1685C167.4 7.85281 167.35 7.53809 167.243 7.24092C167.144 6.99509 166.847 6.87091 166.351 6.8633ZM169.06 7.099V13.8835H170.58C171.775 13.8835 172.66 13.6022 173.236 13.0395C173.526 12.7493 173.752 12.4021 173.901 12.02C174.05 11.6379 174.118 11.2291 174.101 10.8194C174.095 9.90538 173.796 9.0172 173.249 8.28508C172.683 7.48929 171.685 7.0914 170.254 7.0914L169.06 7.099Z" fill="white"/>
<path d="M186.035 6.71631V6.8633C185.82 6.84807 185.604 6.87829 185.401 6.95201C185.31 6.97057 185.224 7.01152 185.152 7.07121C185.08 7.1309 185.024 7.20749 184.988 7.29415C184.932 7.6477 184.911 8.00593 184.925 8.36364V19.4616C184.905 19.8307 184.93 20.2008 184.998 20.5641C185.053 20.7046 185.154 20.8225 185.285 20.8986C185.522 21.0078 185.784 21.0533 186.045 21.0304V21.1799H182.175V21.0304C182.662 21.0304 182.963 20.9392 183.08 20.7516C183.196 20.5641 183.257 20.1434 183.257 19.4844V8.4929C183.257 7.80609 183.191 7.35497 183.06 7.14462C182.928 6.93426 182.634 6.83796 182.175 6.8633V6.71631H186.035Z" fill="white"/>
<path d="M200.975 21.1799H198.23V18.9497C196.836 20.5007 195.176 21.2762 193.248 21.2762C191.813 21.2762 190.677 20.8741 189.839 20.0699C189.001 19.2656 188.579 18.153 188.572 16.7321V8.07219C188.572 7.54758 188.511 7.21558 188.387 7.07365C188.263 6.93173 187.971 6.8633 187.512 6.8633V6.71631H191.352V6.8633C191.053 6.83603 190.752 6.9034 190.493 7.05592C190.326 7.18263 190.239 7.48676 190.239 7.96322V15.9059C190.239 17.5685 190.628 18.7554 191.405 19.4667C192.121 20.1513 193.073 20.5327 194.064 20.5311C195.627 20.5311 197.013 19.8274 198.223 18.42V8.63229C198.223 7.77399 198.147 7.26711 197.997 7.11167C197.902 7.02511 197.79 6.95905 197.669 6.91763C197.547 6.8762 197.418 6.8603 197.29 6.8709H197.151V6.72392H200.952V6.8709C200.481 6.89878 200.192 6.97482 200.063 7.1066C199.916 7.32584 199.852 7.58962 199.88 7.85171V19.6188C199.866 19.9245 199.889 20.2309 199.949 20.5311C199.997 20.6796 200.097 20.8062 200.23 20.8885C200.453 21.0026 200.703 21.0518 200.952 21.0304L200.975 21.1799Z" fill="white"/>
<path d="M215.798 6.71631H218.079V6.8633C217.319 6.90385 216.921 7.30682 216.921 8.07219C216.926 8.29885 216.947 8.52491 216.982 8.74887L218.503 19.7049C218.535 20.0717 218.64 20.4284 218.812 20.7541C218.905 20.846 219.016 20.9179 219.138 20.9654C219.26 21.0129 219.391 21.035 219.521 21.0304V21.1799H216.275V21.0304C216.362 21.0471 216.451 21.0429 216.536 21.0179C216.62 20.993 216.698 20.9481 216.762 20.8871C216.826 20.826 216.874 20.7505 216.902 20.667C216.931 20.5835 216.939 20.4943 216.926 20.4069C216.917 20.2142 216.896 20.0221 216.865 19.8316L215.383 9.21012L210.197 21.1799H210.099L204.885 9.2304L203.421 19.9127C203.392 20.0963 203.378 20.2819 203.38 20.4678C203.38 20.8428 203.601 21.0304 204.042 21.0304V21.1799H201.832V21.0304C202.053 21.056 202.278 21.0136 202.475 20.9087C202.585 20.8019 202.662 20.6654 202.696 20.5159C202.753 20.3187 202.793 20.1169 202.815 19.9127L204.467 8.22932C204.199 7.58053 203.93 7.19277 203.661 7.06098C203.421 6.9365 203.154 6.86888 202.883 6.8633V6.71631H205.61L210.697 18.5467L215.798 6.71631Z" fill="white"/>
<path d="M41.0337 34.886C41.1098 34.6325 41.0337 34.521 40.7626 34.521H40.4356C40.3697 34.521 40.3495 34.5008 40.3697 34.4323L40.4255 34.2423C40.4255 34.1916 40.466 34.1637 40.5421 34.1637C40.6865 34.1637 41.0819 34.1916 41.6014 34.1916C43.0536 34.1916 43.748 34.1738 44.1713 34.1637C44.6427 34.1434 44.9012 34.0674 45.0076 34.0674C45.1141 34.0674 45.1039 34.1358 45.1039 34.222C45.1039 34.4754 45.2763 35.6159 45.2965 35.7223C45.2965 35.7705 45.2965 35.8009 45.2484 35.811L45.1039 35.8668C45.0659 35.8871 45.0355 35.8668 45.0254 35.8186C44.8537 35.4454 44.6547 35.0853 44.4298 34.7415C44.2955 34.5692 44.3335 34.5869 44.0724 34.5692C43.8925 34.5489 42.1691 34.521 41.9765 34.521L41.1681 37.0985L42.6025 37.0782C43.2361 37.0782 43.3324 36.7133 43.5149 36.0898C43.5352 36.0214 43.5833 36.0315 43.6315 36.0391L43.7861 36.0695C43.8241 36.0695 43.8418 36.0974 43.8241 36.1557L43.2564 38.571C43.2361 38.6191 43.2082 38.6394 43.1601 38.6191L42.9953 38.6014C42.9472 38.6014 42.9294 38.5709 42.9396 38.5127C43.0536 37.8106 43.0435 37.4989 42.5062 37.4736L41.0616 37.4153L40.4078 39.5999C40.2329 40.198 40.3393 40.3146 40.6764 40.3146H40.9476C41.0135 40.3146 41.0413 40.3425 41.0337 40.3906L40.9653 40.6111C40.9653 40.6593 40.9172 40.6694 40.8487 40.6694C40.7347 40.6694 40.4458 40.639 39.6753 40.639C38.8669 40.639 38.6185 40.6694 38.5121 40.6694C38.4639 40.6694 38.436 40.6491 38.4436 40.5934L38.4816 40.3906C38.4825 40.3791 38.4858 40.368 38.4912 40.3578C38.4967 40.3476 38.5041 40.3387 38.5132 40.3316C38.5222 40.3244 38.5327 40.3192 38.5438 40.3163C38.5549 40.3134 38.5666 40.3128 38.5779 40.3146H38.8593C39.1659 40.3146 39.3965 40.122 39.5233 39.7266L41.0337 34.886Z" fill="white"/>
<path d="M45.1904 40.4946C45.1904 40.2741 45.3551 39.8331 45.7581 38.7534L46.0369 37.9931C46.12 37.8125 46.1788 37.6216 46.2117 37.4254C46.2126 37.408 46.2097 37.3906 46.2031 37.3744C46.1965 37.3583 46.1865 37.3438 46.1736 37.3319C46.1608 37.3201 46.1456 37.3112 46.1289 37.3059C46.1123 37.3006 46.0947 37.299 46.0774 37.3013C45.9127 37.3013 45.459 37.8208 45.3044 37.9754C45.2983 37.9833 45.2904 37.9897 45.2814 37.9941C45.2724 37.9985 45.2625 38.0008 45.2525 38.0008C45.2425 38.0008 45.2326 37.9985 45.2236 37.9941C45.2146 37.9897 45.2067 37.9833 45.2005 37.9754L45.1245 37.8892C45.0839 37.8613 45.0662 37.8411 45.0941 37.8031C45.122 37.765 46.1078 36.5891 46.7287 36.6195C46.7603 36.6184 46.7918 36.6239 46.8211 36.6357C46.8504 36.6475 46.8769 36.6653 46.8989 36.688C46.9209 36.7107 46.9379 36.7378 46.9487 36.7674C46.9596 36.7971 46.9641 36.8287 46.9619 36.8603C46.8938 37.2324 46.7833 37.5955 46.6324 37.9424L46.0749 39.4048C45.9866 39.6074 45.9277 39.8216 45.9 40.0409C45.9 40.1271 45.9279 40.1854 46.0065 40.2056C46.2092 40.1651 46.7262 39.6177 46.7668 39.5315C46.7845 39.5036 46.8225 39.5036 46.8707 39.5492L46.9492 39.6177C46.9873 39.6658 46.9974 39.6861 46.967 39.7317C46.9366 39.7773 46.1408 40.7455 45.3425 40.7455C45.2588 40.7302 45.1904 40.6491 45.1904 40.4946ZM46.4018 34.886C46.4017 34.8206 46.415 34.7558 46.4407 34.6957C46.4665 34.6355 46.5043 34.5813 46.5517 34.5362C46.5991 34.4912 46.6552 34.4562 46.7166 34.4336C46.778 34.4109 46.8434 34.401 46.9087 34.4045C46.9726 34.4 47.0367 34.4085 47.0972 34.4295C47.1577 34.4506 47.2134 34.4836 47.2607 34.5267C47.3081 34.5698 47.3463 34.6221 47.3729 34.6804C47.3995 34.7386 47.414 34.8017 47.4156 34.8657C47.4091 34.9957 47.3528 35.1182 47.2584 35.2079C47.1641 35.2975 47.0388 35.3474 46.9087 35.3473C46.8447 35.3521 46.7804 35.3438 46.7198 35.323C46.6591 35.3021 46.6033 35.269 46.5559 35.2259C46.5084 35.1827 46.4703 35.1303 46.4438 35.0718C46.4173 35.0134 46.403 34.9502 46.4018 34.886Z" fill="white"/>
<path d="M48.0184 40.6384C47.9145 40.6384 47.8942 40.6206 47.9145 40.5522L48.5963 38.7782C48.8033 38.3082 48.9728 37.8227 49.1031 37.326C49.1031 37.2271 49.0651 37.1612 48.9612 37.1612C48.7762 37.1612 48.3149 37.6225 48.1527 37.805C48.1223 37.8354 48.0944 37.8354 48.0564 37.805L47.9677 37.7163C47.9297 37.6782 47.9221 37.6605 47.95 37.62C48.0944 37.4476 48.8066 36.6493 49.4985 36.6493C49.5366 36.6476 49.5748 36.6535 49.6106 36.6666C49.6465 36.6797 49.6794 36.6999 49.7074 36.7258C49.7355 36.7517 49.7581 36.7829 49.774 36.8177C49.7899 36.8524 49.7988 36.8899 49.8001 36.9281C49.8001 37.2246 49.3844 38.1395 49.3084 38.3625L49.3464 38.3803C49.6353 37.919 50.6846 36.6392 51.5412 36.6392C51.8301 36.6392 52.0227 36.7836 52.0227 37.0345C52.0227 37.4578 51.8022 37.957 51.4829 38.7376C51.2808 39.1649 51.1171 39.6093 50.9938 40.0656C50.9927 40.0814 50.9949 40.0971 51.0001 40.112C51.0054 40.1268 51.0136 40.1405 51.0242 40.1521C51.0349 40.1637 51.0478 40.173 51.0622 40.1795C51.0765 40.186 51.092 40.1895 51.1078 40.1898C51.2523 40.1898 51.6755 39.835 51.8022 39.6981C51.81 39.6917 51.8192 39.687 51.829 39.6845C51.8388 39.682 51.849 39.6817 51.859 39.6837C51.8689 39.6856 51.8783 39.6897 51.8865 39.6957C51.8946 39.7018 51.9013 39.7095 51.9061 39.7184L51.9746 39.7944C52.0126 39.835 52.0227 39.8527 51.9746 39.9009C51.8605 40.0555 51.0799 40.7398 50.4362 40.7398C50.312 40.7398 50.2056 40.6891 50.2056 40.5446C50.2056 40.4002 50.5528 39.6018 50.8493 38.7706C50.9862 38.3955 51.3308 37.5972 51.3308 37.3843C51.3308 37.2499 51.2649 37.1638 51.0901 37.1638C50.715 37.1638 49.7621 38.0483 49.3388 38.7325C49.0993 39.1087 48.9053 39.5119 48.761 39.9338L48.5228 40.5801C48.5025 40.6181 48.4822 40.6359 48.3859 40.6359L48.0184 40.6384Z" fill="white"/>
<path d="M52.8416 39.7926C52.8416 38.9842 53.3712 37.9755 54.0733 37.2811C54.3799 36.9744 54.8995 36.6374 55.3632 36.6374C55.4331 36.6318 55.5034 36.6407 55.5697 36.6637C55.6359 36.6866 55.6967 36.7231 55.7482 36.7707C55.7996 36.8183 55.8406 36.8761 55.8686 36.9404C55.8966 37.0047 55.9109 37.0741 55.9107 37.1442C55.8864 37.4136 55.7907 37.6717 55.6334 37.8917C55.4761 38.1118 55.263 38.286 55.016 38.3962C54.579 38.6128 54.1055 38.746 53.6196 38.789C53.528 39.0755 53.486 39.3755 53.4954 39.6761C53.4885 39.7492 53.4961 39.823 53.5179 39.8932C53.5397 39.9633 53.5751 40.0285 53.6223 40.0848C53.6694 40.1412 53.7273 40.1876 53.7925 40.2214C53.8578 40.2552 53.9291 40.2757 54.0023 40.2818C54.2266 40.2638 54.4433 40.1923 54.6343 40.0732C54.8252 39.9542 54.9848 39.791 55.0997 39.5975C55.1199 39.5696 55.1478 39.5493 55.1858 39.5975L55.2923 39.6837C55.3404 39.7115 55.3404 39.7394 55.2923 39.7698C55.0388 40.1069 54.4737 40.743 53.7336 40.743C53.1102 40.7304 52.8416 40.4288 52.8416 39.7926ZM53.6956 38.5128C54.0327 38.5432 55.2948 38.1377 55.2948 37.4256C55.2948 37.2329 55.1985 37.0606 54.9856 37.0606C54.3698 37.0606 53.7742 38.1681 53.6956 38.5128Z" fill="white"/>
<path d="M55.9866 40.1975C55.9916 40.1127 56.0282 40.0329 56.0892 39.9738C56.1502 39.9147 56.2311 39.8806 56.316 39.8782C56.4062 39.8801 56.4933 39.9113 56.5641 39.9671C56.635 40.0229 56.6858 40.1002 56.7089 40.1874C56.7672 40.3496 56.8153 40.456 57.0561 40.456C57.2047 40.4488 57.3444 40.3832 57.445 40.2736C57.5456 40.1641 57.5989 40.0192 57.5934 39.8706C57.5934 39.4549 57.307 39.0621 57.1803 38.7529C57.0114 38.4663 56.9156 38.1425 56.9015 37.8101C56.9198 37.4979 57.0548 37.204 57.2796 36.9867C57.5045 36.7694 57.8028 36.6444 58.1154 36.6367C58.4018 36.6367 58.7972 36.7508 58.7972 37.1284C58.7953 37.2078 58.7635 37.2837 58.708 37.3406C58.6525 37.3975 58.5775 37.4312 58.4981 37.435C58.427 37.4329 58.3581 37.4099 58.2999 37.3689C58.2418 37.3279 58.197 37.2707 58.1712 37.2044C58.123 37.0878 58.1154 36.9358 57.9178 36.9358C57.7799 36.9644 57.6567 37.041 57.5699 37.1519C57.4832 37.2628 57.4385 37.4008 57.4438 37.5415C57.4438 37.8963 57.7327 38.3018 57.791 38.4361C58.0017 38.7662 58.1279 39.1431 58.1585 39.5335C58.158 39.6968 58.1244 39.8584 58.0598 40.0084C57.9951 40.1584 57.9007 40.2938 57.7823 40.4063C57.6638 40.5188 57.5238 40.6061 57.3707 40.663C57.2176 40.7199 57.0545 40.7452 56.8913 40.7373C56.3338 40.7297 55.9866 40.5143 55.9866 40.1975Z" fill="white"/>
<path d="M60.5206 37.2529H59.8465C59.7882 37.2529 59.7705 37.2327 59.7882 37.1769L59.8668 36.964C59.8732 36.9424 59.8873 36.9238 59.9064 36.9117C59.9255 36.8995 59.9483 36.8947 59.9707 36.8981H60.6651L61.172 35.7805C61.1841 35.7457 61.2046 35.7144 61.2315 35.6892C61.2584 35.6641 61.291 35.6458 61.3266 35.636C61.4739 35.5899 61.6186 35.5358 61.7599 35.4738C61.8037 35.4448 61.8528 35.425 61.9044 35.4155C61.9627 35.4155 61.9804 35.4738 61.9044 35.6081L61.2708 36.8981H62.2516C62.2998 36.8981 62.32 36.926 62.2896 37.002L62.2035 37.2048C62.1955 37.2204 62.183 37.2334 62.1677 37.242C62.1523 37.2505 62.1348 37.2544 62.1173 37.2529H61.1365L60.2013 39.4173C60.1024 39.6126 60.0284 39.8195 59.9808 40.0331C59.9808 40.1396 60.0214 40.1979 60.1075 40.1979C60.3863 40.1979 61.0098 39.6479 61.0681 39.582C61.1263 39.5161 61.1263 39.5516 61.1542 39.582L61.2607 39.6961C61.2885 39.7265 61.2885 39.7442 61.2607 39.7848C61.1365 39.9368 60.2469 40.7377 59.4993 40.7377C59.2585 40.7377 59.1926 40.6388 59.1926 40.5045C59.2005 40.3492 59.2357 40.1965 59.2965 40.0534L60.5206 37.2529Z" fill="white"/>
<path d="M66.3243 39.658C66.1317 40.3321 65.7744 41.2749 65.4094 41.7564C65.2413 42.0052 65.0148 42.2089 64.7497 42.3499C64.4846 42.4908 64.189 42.5646 63.8888 42.5649C63.1564 42.5649 62.9638 42.1214 62.9638 41.9186C62.9579 41.8567 62.9645 41.7942 62.9832 41.7349C63.002 41.6755 63.0325 41.6206 63.0729 41.5733C63.1134 41.526 63.1629 41.4873 63.2186 41.4596C63.2743 41.4318 63.335 41.4156 63.3971 41.4118C63.5064 41.4117 63.6114 41.4538 63.6903 41.5294C63.7692 41.605 63.8158 41.7081 63.8204 41.8173C63.8248 41.9055 63.8046 41.9933 63.7621 42.0707C63.751 42.0876 63.745 42.1075 63.745 42.1277C63.745 42.148 63.751 42.1678 63.7621 42.1847C63.7925 42.2126 63.8584 42.2532 64.089 42.2532C64.6187 42.2532 64.9862 41.3585 65.2168 40.5577L66.7856 35.1316C66.8819 34.8148 66.8895 34.536 66.4282 34.536H66.1216C66.0633 34.536 66.0253 34.5158 66.0354 34.4575L66.0836 34.2573C66.0837 34.2454 66.0865 34.2337 66.0916 34.2231C66.0968 34.2124 66.1042 34.203 66.1134 34.1955C66.1226 34.188 66.1333 34.1826 66.1448 34.1797C66.1562 34.1768 66.1682 34.1765 66.1799 34.1787C66.2559 34.1787 66.6994 34.2066 67.4014 34.2066C68.1034 34.2066 68.4988 34.1787 68.585 34.1787C68.6711 34.1787 68.6813 34.2066 68.6711 34.275L68.6331 34.4676C68.6331 34.5158 68.6027 34.536 68.5368 34.536H68.2834C67.9767 34.536 67.7537 34.6602 67.5611 35.3242L66.3243 39.658Z" fill="white"/>
<path d="M68.0654 39.7926C68.0654 38.9842 68.5926 37.9755 69.2971 37.2811C69.6038 36.9744 70.1233 36.6374 70.5871 36.6374C70.657 36.6318 70.7273 36.6407 70.7936 36.6637C70.8598 36.6866 70.9206 36.7231 70.972 36.7707C71.0235 36.8183 71.0645 36.8761 71.0925 36.9404C71.1204 37.0047 71.1348 37.0741 71.1345 37.1442C71.1102 37.4136 71.0145 37.6717 70.8573 37.8917C70.7 38.1118 70.4869 38.286 70.2399 38.3962C69.8028 38.6125 69.3293 38.7457 68.8435 38.789C68.7519 39.0755 68.7099 39.3755 68.7193 39.6761C68.7123 39.7492 68.72 39.823 68.7417 39.8932C68.7635 39.9633 68.799 40.0285 68.8462 40.0848C68.8933 40.1412 68.9512 40.1876 69.0164 40.2214C69.0816 40.2552 69.1529 40.2757 69.2262 40.2818C69.4505 40.2638 69.6672 40.1923 69.8582 40.0732C70.0491 39.9542 70.2087 39.791 70.3235 39.5975C70.3438 39.5696 70.3717 39.5493 70.4097 39.5975L70.5162 39.6837C70.5643 39.7115 70.5643 39.7394 70.5162 39.7698C70.2754 40.1069 69.6976 40.743 68.9575 40.743C68.3341 40.7304 68.0654 40.4288 68.0654 39.7926ZM68.9195 38.5128C69.2566 38.5432 70.5187 38.1377 70.5187 37.4256C70.5187 37.2329 70.4224 37.0606 70.2095 37.0606C69.5936 37.0606 68.9981 38.1681 68.9195 38.5128Z" fill="white"/>
<path d="M72.4829 37.2802C72.4393 37.2785 72.3958 37.2854 72.3548 37.3005C72.3139 37.3157 72.2764 37.3387 72.2443 37.3684C72.2123 37.398 72.1865 37.4337 72.1683 37.4734C72.1501 37.513 72.1399 37.5559 72.1382 37.5995C72.1349 37.6603 72.1507 37.7207 72.1834 37.772C72.2162 37.8234 72.2642 37.8632 72.3207 37.8859C72.3792 37.9116 72.4293 37.9533 72.4651 38.0062C72.501 38.0591 72.5212 38.1211 72.5234 38.1849C72.5234 38.3598 72.4069 38.5017 72.156 38.5017C72.0249 38.4834 71.9062 38.4146 71.8252 38.3099C71.7443 38.2053 71.7074 38.0731 71.7226 37.9417C71.7508 37.6101 71.9017 37.301 72.1458 37.0749C72.3379 36.873 72.6 36.7524 72.8783 36.7378H73.5803L74.4648 36.6795C74.5889 36.6795 74.6574 36.7556 74.5408 36.8721C74.2569 37.1813 73.3953 38.5524 73.3953 39.4623C73.3953 39.9159 73.6487 40.1668 73.9731 40.1668C74.2024 40.1591 74.426 40.0931 74.6229 39.9752C74.8197 39.8573 74.9833 39.6912 75.0984 39.4927C75.2869 39.1034 75.4167 38.6883 75.4836 38.261C75.552 37.8859 75.5697 37.4221 75.6483 37.0774C75.6725 36.9831 75.7293 36.9003 75.8086 36.8437C75.8879 36.7871 75.9846 36.7604 76.0817 36.7682C76.1132 36.7653 76.1449 36.7691 76.1748 36.7796C76.2046 36.79 76.2319 36.8067 76.2548 36.8285C76.2776 36.8504 76.2955 36.877 76.3071 36.9063C76.3188 36.9357 76.324 36.9673 76.3224 36.9989C76.188 37.5042 76.0187 37.9996 75.8156 38.4815C75.6998 38.7615 75.6255 39.0569 75.5951 39.3584C75.6062 39.5739 75.7008 39.7767 75.8588 39.9238C76.0167 40.0709 76.2257 40.1508 76.4416 40.1465C77.0878 40.1465 77.7898 39.4344 77.7898 38.1368C77.7875 37.9323 77.7381 37.7311 77.6454 37.5488C77.5592 37.4627 77.3261 37.27 77.3261 37.0293C77.3273 36.9758 77.3394 36.9231 77.3616 36.8744C77.3838 36.8257 77.4156 36.7821 77.4552 36.746C77.4948 36.71 77.5412 36.6824 77.5918 36.6649C77.6423 36.6474 77.6959 36.6403 77.7493 36.6441C77.9825 36.6441 78.2308 36.7987 78.2308 37.635C78.2337 38.4237 78.0064 39.1961 77.577 39.8576C77.3083 40.2048 76.8952 40.7447 76.1628 40.7447C75.924 40.73 75.6974 40.634 75.5208 40.4726C75.3442 40.3112 75.2282 40.0942 75.1921 39.8576C75.0071 40.0883 74.3533 40.7447 73.6234 40.7447C73.5001 40.741 73.3789 40.7122 73.2672 40.6601C73.1554 40.608 73.0554 40.5336 72.9734 40.4416C72.8913 40.3496 72.8289 40.2418 72.7899 40.1248C72.7508 40.0079 72.7361 39.8842 72.7465 39.7613C72.7465 38.963 73.631 37.6553 74.0136 37.1915L73.9478 37.1256C73.7237 37.2189 73.4855 37.2738 73.2432 37.2878L72.4829 37.2802Z" fill="white"/>
<path d="M78.8999 39.7926C78.8999 38.9842 79.4296 37.9755 80.1316 37.2811C80.4408 36.9744 80.9603 36.6374 81.4216 36.6374C81.4915 36.6318 81.5618 36.6407 81.628 36.6637C81.6943 36.6866 81.7551 36.7231 81.8065 36.7707C81.858 36.8183 81.899 36.8761 81.9269 36.9404C81.9549 37.0047 81.9692 37.0741 81.969 37.1442C81.9447 37.4136 81.849 37.6717 81.6917 37.8917C81.5345 38.1118 81.3214 38.286 81.0744 38.3962C80.6381 38.6125 80.1655 38.7457 79.6805 38.789C79.5889 39.0755 79.5469 39.3755 79.5563 39.6761C79.5493 39.7492 79.557 39.823 79.5788 39.8932C79.6005 39.9633 79.636 40.0285 79.6832 40.0848C79.7303 40.1412 79.7882 40.1876 79.8534 40.2214C79.9187 40.2552 79.99 40.2757 80.0632 40.2818C80.2875 40.2638 80.5042 40.1923 80.6952 40.0732C80.8861 39.9542 81.0457 39.791 81.1606 39.5975C81.1645 39.5895 81.1707 39.5828 81.1783 39.5781C81.1859 39.5734 81.1947 39.5709 81.2036 39.5709C81.2126 39.5709 81.2214 39.5734 81.229 39.5781C81.2366 39.5828 81.2427 39.5895 81.2467 39.5975L81.3532 39.6837C81.4013 39.7115 81.4013 39.7394 81.3532 39.7698C81.1149 40.1069 80.5371 40.743 79.7945 40.743C79.1711 40.7304 78.8999 40.4288 78.8999 39.7926ZM79.7565 38.5128C80.0936 38.5432 81.3532 38.1377 81.3532 37.4256C81.3532 37.2329 81.2594 37.0606 81.0465 37.0606C80.4307 37.0606 79.8325 38.1681 79.7565 38.5128Z" fill="white"/>
<path d="M84.2599 35.0782C84.4044 34.7133 84.3968 34.4725 84.1155 34.4725H83.8367C83.7708 34.4725 83.7606 34.432 83.7809 34.3838L83.8367 34.2115C83.8569 34.1532 83.8772 34.1431 83.9355 34.1431H85.1267C85.2128 34.1431 85.2432 34.2014 85.2128 34.2875L83.2132 39.3791C83.1245 39.5996 82.8939 40.1394 83.0966 40.1394C83.2512 40.1394 83.6922 39.7643 83.8088 39.6325C83.8468 39.5945 83.8671 39.6021 83.895 39.6325L84.0014 39.7465C84.008 39.7527 84.0133 39.7602 84.0169 39.7684C84.0205 39.7767 84.0223 39.7857 84.0223 39.7947C84.0223 39.8037 84.0205 39.8127 84.0169 39.8209C84.0133 39.8292 84.008 39.8367 84.0014 39.8428C83.9533 39.9214 83.0586 40.74 82.4428 40.74C82.3186 40.74 82.2324 40.6817 82.2324 40.4587C82.3203 40.1027 82.439 39.755 82.5872 39.4196L84.2599 35.0782Z" fill="white"/>
<path d="M86.802 35.0782C86.9465 34.7133 86.9363 34.4725 86.6575 34.4725H86.3788C86.3103 34.4725 86.3002 34.432 86.3205 34.3838L86.3788 34.2115C86.3965 34.1532 86.4168 34.1431 86.4751 34.1431H87.6662C87.7549 34.1431 87.7828 34.2014 87.7549 34.2875L85.7528 39.3791C85.6641 39.5996 85.436 40.1394 85.6362 40.1394C85.7908 40.1394 86.2343 39.7643 86.3483 39.6325C86.3864 39.5945 86.4066 39.6021 86.4345 39.6325L86.541 39.7465C86.5479 39.7525 86.5535 39.7599 86.5573 39.7682C86.5612 39.7765 86.5631 39.7855 86.5631 39.7947C86.5631 39.8038 86.5612 39.8129 86.5573 39.8212C86.5535 39.8295 86.5479 39.8369 86.541 39.8428C86.4928 39.9214 85.5982 40.74 84.9823 40.74C84.8581 40.74 84.772 40.6817 84.772 40.4587C84.861 40.103 84.9797 39.7555 85.1268 39.4196L86.802 35.0782Z" fill="white"/>
<path d="M87.3875 39.7926C87.3875 38.9842 87.9171 37.9755 88.6192 37.2811C88.9283 36.9744 89.4479 36.6374 89.9091 36.6374C89.979 36.6318 90.0493 36.6407 90.1156 36.6637C90.1818 36.6866 90.2426 36.7231 90.2941 36.7707C90.3455 36.8183 90.3865 36.8761 90.4145 36.9404C90.4425 37.0047 90.4568 37.0741 90.4566 37.1442C90.4323 37.4136 90.3366 37.6717 90.1793 37.8917C90.022 38.1118 89.8089 38.286 89.5619 38.3962C89.1258 38.6128 88.6531 38.746 88.168 38.789C88.0764 39.0755 88.0344 39.3755 88.0439 39.6761C88.0369 39.7492 88.0445 39.823 88.0663 39.8932C88.0881 39.9633 88.1236 40.0285 88.1707 40.0848C88.2179 40.1412 88.2757 40.1876 88.341 40.2214C88.4062 40.2552 88.4775 40.2757 88.5507 40.2818C88.775 40.2638 88.9918 40.1923 89.1827 40.0732C89.3737 39.9542 89.5333 39.791 89.6481 39.5975C89.6684 39.5696 89.6963 39.5493 89.7343 39.5975L89.8407 39.6837C89.8889 39.7115 89.8889 39.7394 89.8407 39.7698C89.6025 40.1069 89.0246 40.743 88.2821 40.743C87.6586 40.7304 87.3875 40.4288 87.3875 39.7926ZM88.2441 38.5128C88.5811 38.5432 89.8407 38.1377 89.8407 37.4256C89.8407 37.2329 89.7469 37.0606 89.5341 37.0606C88.9182 37.0606 88.3226 38.1681 88.2441 38.5128Z" fill="white"/>
<path d="M91.113 40.6393C91.0446 40.6393 91.0066 40.6013 91.0269 40.5531L91.5641 38.9945C91.7506 38.4422 91.9079 37.8805 92.0355 37.3117C92.0349 37.2914 92.0302 37.2714 92.0216 37.253C92.013 37.2345 92.0007 37.2181 91.9855 37.2045C91.9703 37.191 91.9526 37.1807 91.9333 37.1743C91.914 37.1679 91.8936 37.1655 91.8733 37.1672C91.6807 37.1672 91.2473 37.6006 91.113 37.7628C91.1085 37.7686 91.1027 37.7733 91.0962 37.7765C91.0896 37.7797 91.0823 37.7814 91.075 37.7814C91.0677 37.7814 91.0604 37.7797 91.0538 37.7765C91.0473 37.7733 91.0415 37.7686 91.037 37.7628L90.9381 37.6665C90.9295 37.6557 90.9248 37.6423 90.9248 37.6285C90.9248 37.6147 90.9295 37.6013 90.9381 37.5905C91.1409 37.2914 91.7187 36.6375 92.3726 36.6375C92.5652 36.6375 92.6412 36.7997 92.6412 36.9746C92.57 37.4399 92.4545 37.8973 92.2966 38.3406L92.3447 38.3609C92.5982 37.8211 93.3737 36.6375 93.9135 36.6375C93.9726 36.632 94.0322 36.6393 94.0882 36.6588C94.1443 36.6784 94.1955 36.7098 94.2383 36.7509C94.2811 36.7921 94.3145 36.8419 94.3363 36.8972C94.3581 36.9524 94.3678 37.0116 94.3646 37.0709C94.3692 37.1785 94.3332 37.2838 94.2637 37.366C94.1942 37.4482 94.0963 37.5012 93.9895 37.5144C93.9446 37.5163 93.8999 37.5084 93.8583 37.4914C93.8168 37.4743 93.7794 37.4485 93.7488 37.4156C93.719 37.3773 93.6804 37.3469 93.6362 37.327C93.592 37.3072 93.5437 37.2984 93.4953 37.3016C93.2419 37.3016 92.6945 38.1303 92.3118 38.7639C92.1501 39.0251 92.0231 39.3062 91.9341 39.6002L91.6174 40.5734C91.5971 40.6393 91.5692 40.6393 91.4932 40.6393H91.113Z" fill="white"/>
<path d="M94.6913 38.023C94.6735 38.023 94.6634 37.985 94.6913 37.9368C94.7495 37.8203 95.2589 36.6367 95.8444 36.6367C96.1434 36.6367 96.2499 36.8775 96.3259 37.724C96.4222 38.8213 96.4906 39.9466 96.5109 40.5726H96.5464C96.9338 39.9273 97.2629 39.2488 97.5297 38.5451C97.624 38.2763 97.6729 37.9936 97.6742 37.7087C97.6738 37.588 97.6576 37.4679 97.626 37.3514C97.5682 37.2447 97.532 37.1275 97.5196 37.0067C97.5196 36.8521 97.6058 36.6595 97.915 36.6595C98.1684 36.6595 98.3002 36.9003 98.3002 37.1411C98.3002 37.767 97.9327 38.5755 97.6539 39.1812C97.2307 40.1037 96.2195 41.8271 95.373 42.6457C95.1196 42.9143 94.4784 43.5201 93.9107 43.5201C93.5356 43.5201 93.3708 43.2894 93.3708 43.0689C93.3744 42.9669 93.4159 42.8699 93.4871 42.7969C93.5583 42.7238 93.6542 42.6798 93.7561 42.6736C93.8232 42.6726 93.8897 42.6858 93.9514 42.7125C94.013 42.7391 94.0682 42.7786 94.1134 42.8282C94.1791 42.8914 94.2636 42.9315 94.3542 42.9422C94.5211 42.9216 94.6781 42.8519 94.8053 42.742C95.2559 42.3982 95.6189 41.9527 95.8647 41.4419C95.9295 41.2697 95.9555 41.0854 95.9407 40.902C95.9204 40.6816 95.7379 38.0636 95.634 37.5643C95.5935 37.3818 95.5479 37.2931 95.4693 37.2931C95.297 37.2931 94.9878 37.8608 94.9117 38.0737C94.9037 38.0885 94.8902 38.0996 94.8742 38.1048C94.8582 38.11 94.8408 38.1088 94.8256 38.1016L94.6913 38.023Z" fill="white"/>
<path d="M101.562 38.368C101.545 37.9676 101.641 37.5705 101.838 37.2219C102.036 36.8733 102.327 36.5872 102.68 36.3962C102.436 36.065 102.31 35.6617 102.322 35.2507C102.323 35.0637 102.36 34.8787 102.434 34.7068C102.507 34.5349 102.615 34.3795 102.75 34.2501C102.884 34.1206 103.044 34.0197 103.219 33.9535C103.394 33.8872 103.58 33.8569 103.767 33.8644C104.297 33.8644 104.7 34.1533 104.7 34.6247C104.706 34.7658 104.665 34.9048 104.583 35.02C104.501 35.1352 104.384 35.2199 104.248 35.2608C104.21 35.2608 104.2 35.1949 104.218 35.0885C104.235 35.0057 104.232 34.9203 104.21 34.8388C104.188 34.7573 104.148 34.6819 104.092 34.6184C104.037 34.5549 103.967 34.5051 103.889 34.4728C103.811 34.4405 103.727 34.4266 103.643 34.4321C103.123 34.4321 102.718 34.8857 102.718 35.5396C102.717 35.8119 102.801 36.0777 102.958 36.2999C103.068 36.266 103.181 36.2497 103.296 36.2518C103.468 36.2518 103.787 36.3379 103.787 36.4824C103.787 36.713 103.66 36.936 103.506 36.936C103.314 36.9142 103.13 36.8482 102.969 36.7434C102.844 36.637 102.804 36.6167 102.68 36.6953C102.353 36.9056 102.122 37.4074 102.122 37.9929C102.122 39.1764 103.161 40.1293 104.94 40.1293C106.719 40.1293 107.634 38.9838 107.634 38.0714C107.642 37.6828 107.496 37.3069 107.228 37.0255C106.959 36.7441 106.591 36.5798 106.202 36.5686C106.085 36.5669 105.968 36.5886 105.858 36.6323C105.749 36.6761 105.649 36.7411 105.565 36.8236C105.481 36.906 105.414 37.0043 105.368 37.1128C105.322 37.2213 105.298 37.3378 105.298 37.4556C105.298 37.8966 105.518 38.1475 105.604 38.1475C105.69 38.1475 105.69 38.0892 105.69 38.003C105.698 37.8981 105.745 37.8001 105.822 37.7286C105.9 37.6571 106.001 37.6175 106.106 37.6178C106.169 37.6167 106.232 37.6291 106.29 37.654C106.348 37.6789 106.4 37.7158 106.442 37.7622C106.485 37.8087 106.517 37.8636 106.537 37.9235C106.557 37.9834 106.564 38.0467 106.557 38.1095C106.55 38.1789 106.529 38.2463 106.496 38.3077C106.462 38.369 106.417 38.4232 106.363 38.467C106.308 38.5108 106.246 38.5434 106.179 38.563C106.112 38.5825 106.041 38.5886 105.972 38.5808C105.683 38.5513 105.417 38.412 105.228 38.1917C105.04 37.9714 104.943 37.687 104.958 37.3973C104.958 36.751 105.419 36.0313 106.431 36.0313C106.795 36.0313 107.287 36.0972 107.459 36.0972C108.499 36.0972 109 35.7905 109 35.2507C109.003 35.0915 108.949 34.9364 108.849 34.813C108.748 34.6896 108.607 34.6059 108.45 34.5766C108.326 34.5766 108.326 34.7033 108.344 34.7894C108.348 34.8426 108.341 34.8961 108.322 34.9462C108.304 34.9964 108.276 35.0421 108.239 35.0804C108.202 35.1187 108.157 35.1487 108.107 35.1685C108.058 35.1882 108.004 35.1972 107.951 35.1949C107.901 35.2009 107.85 35.1965 107.801 35.1821C107.753 35.1676 107.707 35.1434 107.669 35.1109C107.63 35.0784 107.598 35.0383 107.575 34.993C107.552 34.9478 107.539 34.8983 107.536 34.8477C107.536 34.4422 107.913 34.2496 108.268 34.2496C108.549 34.2386 108.823 34.3389 109.03 34.5287C109.238 34.7186 109.362 34.9826 109.375 35.2634C109.375 36.158 108.777 36.6015 107.807 36.7257C107.586 36.7536 107.553 36.822 107.672 36.9791C107.912 37.3508 108.032 37.7867 108.017 38.2286C108.017 39.8658 106.575 40.8466 104.92 40.8466C102.229 40.8516 101.562 39.3513 101.562 38.368Z" fill="white"/>
<path d="M114.046 37.7449L112.698 39.4379C112.52 39.6202 112.385 39.8402 112.303 40.0816C112.303 40.226 112.43 40.3147 112.64 40.3147H112.987C113.035 40.3147 113.073 40.3325 113.056 40.4085L113.015 40.5935C113.014 40.605 113.011 40.6162 113.005 40.6263C113 40.6365 112.992 40.6454 112.983 40.6526C112.974 40.6597 112.964 40.6649 112.953 40.6678C112.942 40.6708 112.93 40.6713 112.919 40.6696C112.822 40.6696 112.412 40.6391 111.651 40.6391C111.015 40.6391 110.678 40.6696 110.574 40.6696C110.526 40.6696 110.478 40.6493 110.486 40.6011L110.534 40.3908C110.534 40.3325 110.564 40.3147 110.602 40.3147H110.752C111.165 40.3147 111.57 40.0233 111.915 39.6102L116.373 34.288C116.419 34.2221 116.459 34.2019 116.642 34.1917C116.794 34.1825 116.944 34.1604 117.093 34.1258C117.197 34.0904 117.303 34.065 117.412 34.0498C117.488 34.0498 117.526 34.0777 117.506 34.1436L116.074 39.486C116.024 39.6684 115.992 39.8551 115.978 40.0436C115.978 40.1982 116.142 40.3147 116.335 40.3147H116.588C116.647 40.3147 116.675 40.3426 116.667 40.4085L116.637 40.5834C116.637 40.6391 116.609 40.6696 116.523 40.6696C116.436 40.6696 116.016 40.6391 115.367 40.6391C114.718 40.6391 114.396 40.6696 114.242 40.6696C114.155 40.6696 114.135 40.6315 114.145 40.5733L114.183 40.3908C114.183 40.3502 114.211 40.3147 114.262 40.3147H114.444C114.809 40.3147 115.06 40.2463 115.253 39.524L115.732 37.75L114.046 37.7449ZM115.864 37.4078L116.606 34.8735C116.644 34.7392 116.469 34.7214 116.393 34.8076L114.295 37.4154L115.864 37.4078Z" fill="white"/>
<path d="M118 40.6393C117.932 40.6393 117.894 40.6013 117.914 40.5531L118.454 38.9945C118.639 38.4418 118.796 37.8802 118.925 37.3117C118.924 37.2912 118.919 37.2712 118.91 37.2528C118.901 37.2343 118.889 37.2179 118.873 37.2044C118.858 37.1909 118.84 37.1807 118.821 37.1743C118.801 37.1679 118.781 37.1655 118.76 37.1672C118.568 37.1672 118.134 37.6006 118 37.7628C117.996 37.7686 117.99 37.7733 117.983 37.7765C117.977 37.7797 117.969 37.7814 117.962 37.7814C117.955 37.7814 117.947 37.7797 117.941 37.7765C117.934 37.7733 117.929 37.7686 117.924 37.7628L117.828 37.6665C117.818 37.6562 117.813 37.6426 117.813 37.6285C117.813 37.6144 117.818 37.6008 117.828 37.5904C118.03 37.2914 118.606 36.6375 119.262 36.6375C119.455 36.6375 119.531 36.7997 119.531 36.9746C119.458 37.4398 119.342 37.8972 119.184 38.3406L119.232 38.3609C119.485 37.8211 120.261 36.6375 120.801 36.6375C120.86 36.632 120.919 36.6393 120.976 36.6588C121.032 36.6784 121.083 36.7098 121.126 36.7508C121.169 36.7919 121.203 36.8417 121.225 36.897C121.247 36.9522 121.257 37.0115 121.254 37.0709C121.259 37.1788 121.222 37.2845 121.152 37.3667C121.082 37.449 120.984 37.5017 120.877 37.5144C120.832 37.5164 120.788 37.5086 120.746 37.4915C120.705 37.4744 120.668 37.4485 120.638 37.4156C120.608 37.3778 120.569 37.3477 120.525 37.3279C120.481 37.3081 120.433 37.299 120.385 37.3015C120.131 37.3015 119.587 38.1303 119.201 38.7639C119.041 39.0252 118.915 39.3064 118.826 39.6002L118.507 40.5734C118.489 40.6393 118.459 40.6393 118.383 40.6393H118Z" fill="white"/>
<path d="M122.676 37.2529H122.002C121.946 37.2529 121.926 37.2327 121.946 37.1769L122.022 36.964C122.029 36.9422 122.044 36.9235 122.063 36.9114C122.083 36.8993 122.106 36.8946 122.128 36.8981H122.82L123.327 35.7805C123.339 35.7455 123.359 35.714 123.386 35.6887C123.413 35.6635 123.446 35.6454 123.482 35.636C123.628 35.5899 123.772 35.5358 123.913 35.4738C123.956 35.4448 124.006 35.425 124.057 35.4155C124.115 35.4155 124.136 35.4738 124.057 35.6081L123.424 36.8981H124.407C124.455 36.8981 124.473 36.926 124.445 37.002L124.359 37.2048C124.35 37.2202 124.338 37.233 124.323 37.2415C124.307 37.2501 124.29 37.254 124.273 37.2529H123.289L122.357 39.4173C122.258 39.6126 122.184 39.8195 122.136 40.0331C122.136 40.1396 122.174 40.1979 122.26 40.1979C122.539 40.1979 123.165 39.6479 123.223 39.582C123.282 39.5161 123.282 39.5516 123.309 39.582L123.416 39.6961C123.444 39.7265 123.444 39.7442 123.416 39.7848C123.292 39.9368 122.402 40.7377 121.657 40.7377C121.416 40.7377 121.348 40.6388 121.348 40.5045C121.355 40.3489 121.391 40.196 121.454 40.0534L122.676 37.2529Z" fill="white"/>
<path d="M124.795 40.4946C124.795 40.2741 124.957 39.8331 125.362 38.7534L125.641 37.9931C125.724 37.8125 125.782 37.6215 125.814 37.4254C125.814 37.408 125.812 37.3906 125.805 37.3744C125.798 37.3583 125.788 37.3438 125.775 37.3319C125.763 37.3201 125.747 37.3112 125.731 37.3059C125.714 37.3006 125.697 37.299 125.679 37.3013C125.517 37.3013 125.063 37.8208 124.919 37.9754C124.913 37.9833 124.904 37.9897 124.895 37.9941C124.886 37.9985 124.876 38.0008 124.866 38.0008C124.856 38.0008 124.845 37.9985 124.836 37.9941C124.827 37.9897 124.819 37.9833 124.812 37.9754L124.736 37.8892C124.698 37.8613 124.678 37.8411 124.709 37.8031C124.739 37.765 125.722 36.5891 126.343 36.6195C126.375 36.6183 126.406 36.6238 126.435 36.6357C126.464 36.6475 126.491 36.6654 126.513 36.6881C126.534 36.7108 126.551 36.738 126.562 36.7676C126.572 36.7973 126.576 36.8289 126.574 36.8603C126.505 37.233 126.391 37.5962 126.237 37.9424L125.679 39.4048C125.592 39.6078 125.534 39.8219 125.507 40.0409C125.507 40.1271 125.535 40.1854 125.613 40.2056C125.814 40.1651 126.333 39.6177 126.374 39.5315C126.394 39.5036 126.432 39.5036 126.48 39.5492L126.556 39.6177C126.597 39.6658 126.604 39.6861 126.576 39.7317C126.549 39.7773 125.748 40.7455 124.949 40.7455C124.861 40.7302 124.795 40.6491 124.795 40.4946ZM126.006 34.886C126.006 34.8206 126.019 34.7558 126.045 34.6957C126.071 34.6355 126.109 34.5813 126.156 34.5362C126.203 34.4912 126.26 34.4562 126.321 34.4336C126.382 34.4109 126.448 34.401 126.513 34.4045C126.577 34.4 126.641 34.4085 126.702 34.4295C126.762 34.4506 126.818 34.4836 126.865 34.5267C126.912 34.5698 126.951 34.6221 126.977 34.6804C127.004 34.7386 127.018 34.8017 127.02 34.8657C127.013 34.9957 126.957 35.1182 126.863 35.2079C126.768 35.2975 126.643 35.3474 126.513 35.3473C126.449 35.3521 126.385 35.3438 126.324 35.323C126.263 35.3021 126.208 35.269 126.16 35.2259C126.113 35.1827 126.075 35.1303 126.048 35.0718C126.022 35.0134 126.007 34.9502 126.006 34.886Z" fill="white"/>
<path d="M127.585 37.2532C127.537 37.2532 127.519 37.2228 127.537 37.1569L127.575 36.9922C127.595 36.9263 127.613 36.8984 127.691 36.8984H128.528C128.817 36.0697 129.144 35.2714 129.653 34.7037C129.833 34.5035 130.053 34.3422 130.298 34.2298C130.543 34.1173 130.808 34.0561 131.077 34.0498C131.637 34.0498 131.944 34.3843 131.944 34.615C131.95 34.6699 131.945 34.7255 131.929 34.7783C131.913 34.8311 131.885 34.8799 131.849 34.9216C131.813 34.9634 131.768 34.9971 131.718 35.0206C131.668 35.0442 131.614 35.0571 131.559 35.0585C131.505 35.0646 131.45 35.0592 131.399 35.0425C131.347 35.0259 131.3 34.9984 131.26 34.9619C131.22 34.9254 131.188 34.8808 131.166 34.831C131.145 34.7812 131.135 34.7274 131.136 34.6733C131.118 34.5851 131.067 34.5071 130.993 34.4553C130.92 34.4034 130.829 34.3817 130.74 34.3945C129.846 34.3945 129.501 35.8188 129.182 36.8984H130.117C130.175 36.8984 130.193 36.9263 130.175 37.0125L130.124 37.1848C130.124 37.2431 130.097 37.2532 130.02 37.2532H129.106C128.852 38.0313 128.414 39.6964 127.932 40.9306C127.344 42.4309 126.665 43.4979 125.631 43.4979C125.464 43.5122 125.299 43.4608 125.17 43.3547C125.04 43.2487 124.958 43.0964 124.939 42.9302C124.938 42.8756 124.947 42.8212 124.968 42.7705C124.988 42.7197 125.018 42.6736 125.057 42.635C125.096 42.5964 125.142 42.566 125.192 42.5457C125.243 42.5254 125.298 42.5157 125.352 42.5171C125.465 42.5279 125.572 42.5766 125.654 42.6552C125.736 42.7338 125.79 42.8378 125.806 42.9505C125.81 42.9922 125.828 43.0312 125.858 43.0608C125.887 43.0904 125.926 43.1087 125.968 43.1127C126.429 43.1127 126.949 42.3042 127.468 40.5251L128.442 37.2532H127.585Z" fill="white"/>
<path d="M134.091 36.637C134.129 36.637 134.139 36.6852 134.119 36.7232C133.936 37.1186 133.444 38.4466 133.399 38.6012C133.353 38.7558 132.935 39.9571 132.935 40.0432C132.935 40.1294 132.983 40.1598 133.041 40.1598C133.155 40.1598 133.647 39.6529 133.716 39.5718C133.743 39.5414 133.771 39.5237 133.792 39.5516L133.878 39.6479C133.908 39.6783 133.916 39.696 133.898 39.7264C133.792 39.919 132.955 40.7402 132.405 40.7402C132.291 40.7402 132.203 40.6996 132.203 40.5754C132.203 40.4513 132.301 40.1319 132.666 39.1131L132.618 39.0928C132.213 39.7087 131.242 40.7402 130.558 40.7402C130.484 40.7339 130.412 40.7128 130.346 40.6782C130.28 40.6437 130.222 40.5963 130.175 40.539C130.127 40.4816 130.092 40.4153 130.071 40.3441C130.05 40.2729 130.043 40.1982 130.051 40.1243C130.051 38.7178 131.63 36.6396 132.803 36.6396C132.936 36.6259 133.071 36.6491 133.191 36.7068C133.312 36.7645 133.415 36.8543 133.487 36.9665L133.67 36.7131C133.679 36.6947 133.693 36.6789 133.71 36.667C133.726 36.655 133.746 36.6474 133.766 36.6446L134.091 36.637ZM132.877 38.3097C133.015 38.0662 133.095 37.7937 133.11 37.5139C133.11 37.2605 133.011 36.9437 132.656 36.9437C131.772 36.9437 130.74 38.9712 130.74 39.8886C130.74 40.1117 130.837 40.2257 130.994 40.2257C131.483 40.2232 132.704 38.6671 132.877 38.3097Z" fill="white"/>
<path d="M134.648 39.851C134.648 38.5433 135.715 36.6375 136.833 36.6375C136.906 36.6315 136.979 36.6412 137.047 36.6661C137.116 36.691 137.178 36.7304 137.23 36.7817C137.282 36.833 137.323 36.8948 137.349 36.9631C137.374 37.0314 137.385 37.1045 137.38 37.1773C137.376 37.2809 137.333 37.3792 137.261 37.4535C137.188 37.5278 137.091 37.5729 136.987 37.5802C136.927 37.581 136.868 37.56 136.821 37.5209C136.775 37.4818 136.744 37.4273 136.734 37.3674C136.716 37.2997 136.677 37.2393 136.624 37.194C136.571 37.1487 136.505 37.1208 136.435 37.1139C136.181 37.1139 135.943 37.3446 135.733 37.7779C135.501 38.3116 135.36 38.8805 135.317 39.4607C135.317 40.1628 135.53 40.2591 135.702 40.2591C136.078 40.2591 136.445 39.8738 136.549 39.7395C136.579 39.7015 136.607 39.6838 136.638 39.7015L136.742 39.7978C136.772 39.8181 136.792 39.846 136.742 39.9043C136.607 40.107 135.981 40.733 135.355 40.733C135.033 40.7305 134.648 40.4948 134.648 39.851Z" fill="white"/>
<path d="M138.959 37.2529H138.285C138.229 37.2529 138.209 37.2327 138.229 37.1769L138.305 36.964C138.312 36.9424 138.326 36.9238 138.345 36.9117C138.364 36.8995 138.387 36.8947 138.409 36.8981H139.103L139.61 35.7805C139.622 35.7457 139.643 35.7144 139.67 35.6892C139.697 35.6641 139.729 35.6458 139.765 35.636C139.912 35.5899 140.057 35.5358 140.198 35.4738C140.242 35.4448 140.291 35.425 140.343 35.4155C140.401 35.4155 140.421 35.4738 140.343 35.6081L139.707 36.8981H140.69C140.736 36.8981 140.756 36.926 140.725 37.002L140.639 37.2048C140.631 37.2204 140.619 37.2334 140.603 37.242C140.588 37.2505 140.571 37.2544 140.553 37.2529H139.572L138.64 39.4173C138.539 39.6121 138.464 39.8191 138.417 40.0331C138.417 40.1396 138.457 40.1979 138.543 40.1979C138.822 40.1979 139.448 39.6479 139.504 39.582C139.56 39.5161 139.562 39.5516 139.593 39.582L139.696 39.6961C139.727 39.7265 139.727 39.7442 139.696 39.7848C139.572 39.9368 138.683 40.7377 137.922 40.7377C137.682 40.7377 137.616 40.6388 137.616 40.5045C137.623 40.3489 137.659 40.196 137.722 40.0534L138.959 37.2529Z" fill="white"/>
<path d="M140.469 40.1975C140.474 40.1129 140.51 40.0331 140.571 39.974C140.631 39.9148 140.712 39.8806 140.796 39.8782C140.887 39.8796 140.975 39.9105 141.046 39.9663C141.117 40.0222 141.169 40.0998 141.192 40.1874C141.25 40.3496 141.298 40.456 141.539 40.456C141.688 40.4488 141.827 40.3832 141.928 40.2736C142.028 40.1641 142.082 40.0192 142.076 39.8706C142.076 39.4549 141.79 39.0621 141.663 38.7529C141.494 38.4663 141.399 38.1425 141.384 37.8101C141.403 37.4984 141.537 37.2048 141.762 36.9875C141.986 36.7703 142.284 36.6451 142.596 36.6367C142.885 36.6367 143.28 36.7508 143.28 37.1284C143.278 37.2078 143.246 37.2837 143.191 37.3406C143.135 37.3975 143.06 37.4312 142.981 37.435C142.91 37.4329 142.841 37.4099 142.783 37.3689C142.725 37.3279 142.68 37.2707 142.654 37.2044C142.606 37.0878 142.596 36.9358 142.401 36.9358C142.263 36.9644 142.14 37.041 142.053 37.1519C141.966 37.2628 141.921 37.4008 141.927 37.5415C141.927 37.8963 142.216 38.3018 142.274 38.4361C142.484 38.7666 142.609 39.1434 142.639 39.5335C142.639 39.697 142.605 39.8587 142.541 40.0089C142.476 40.159 142.382 40.2945 142.263 40.4071C142.145 40.5197 142.005 40.607 141.851 40.6638C141.698 40.7205 141.535 40.7456 141.372 40.7373C140.817 40.7297 140.469 40.5143 140.469 40.1975Z" fill="white"/>
<path d="M146.849 38.2239C146.869 38.1757 146.899 38.1757 146.955 38.1859L147.051 38.2163C147.1 38.234 147.138 38.2543 147.12 38.3202C146.773 39.7547 147.627 40.4085 148.225 40.4085C148.373 40.4089 148.52 40.3796 148.657 40.3225C148.794 40.2653 148.918 40.1814 149.022 40.0757C149.126 39.9699 149.208 39.8445 149.263 39.7067C149.318 39.5689 149.345 39.4215 149.342 39.2731C149.342 38.6294 148.871 38.2594 148.448 37.7931C147.85 37.1367 147.378 36.6475 147.378 35.7428C147.378 35.0483 147.928 34.0498 149.016 34.0498C149.428 34.0785 149.823 34.2284 150.151 34.4806C150.189 34.5113 150.236 34.5283 150.285 34.5288C150.361 34.5288 150.402 34.3945 150.44 34.1917C150.44 34.1639 150.468 34.1537 150.536 34.1638H150.66C150.719 34.1638 150.736 34.1917 150.729 34.2323L150.382 36.0596C150.38 36.0683 150.377 36.0766 150.373 36.0841C150.368 36.0917 150.362 36.0982 150.355 36.1034C150.348 36.1086 150.34 36.1124 150.332 36.1144C150.323 36.1164 150.314 36.1167 150.306 36.1153H150.171C150.113 36.1153 150.072 36.0874 150.082 36.0291C150.141 35.6439 150.017 34.4198 149.016 34.4198C148.883 34.425 148.754 34.4564 148.634 34.5124C148.514 34.5683 148.407 34.6475 148.318 34.7455C148.229 34.8434 148.161 34.9581 148.117 35.0828C148.073 35.2075 148.055 35.3396 148.063 35.4716C148.063 36.1913 148.486 36.4853 148.929 36.9339C149.373 37.3825 149.979 37.9147 149.979 38.9234C149.979 40.1906 149.081 40.7811 148.235 40.7811C147.619 40.7811 147.206 40.4364 146.821 40.0512C146.808 40.0331 146.79 40.0187 146.77 40.0094C146.75 40.0001 146.728 39.9961 146.706 39.9979C146.683 39.9997 146.662 40.0071 146.644 40.0196C146.625 40.032 146.61 40.049 146.6 40.0689C146.523 40.1856 146.455 40.3085 146.398 40.4364C146.377 40.4744 146.36 40.4922 146.301 40.4643L146.177 40.4161C146.129 40.3984 146.119 40.3882 146.139 40.3198L146.849 38.2239Z" fill="white"/>
<path d="M151.258 40.4946C151.258 40.2741 151.421 39.8331 151.826 38.7534L152.105 37.9931C152.188 37.8125 152.245 37.6215 152.277 37.4254C152.278 37.408 152.275 37.3906 152.269 37.3744C152.262 37.3583 152.252 37.3438 152.239 37.3319C152.226 37.3201 152.211 37.3112 152.194 37.3059C152.178 37.3006 152.16 37.299 152.143 37.3013C151.978 37.3013 151.527 37.8208 151.383 37.9754C151.376 37.9833 151.368 37.9897 151.359 37.9941C151.35 37.9985 151.34 38.0008 151.329 38.0008C151.319 38.0008 151.309 37.9985 151.3 37.9941C151.291 37.9897 151.283 37.9833 151.276 37.9754L151.2 37.8892C151.162 37.8613 151.142 37.8411 151.17 37.8031C151.198 37.765 152.183 36.5891 152.807 36.6195C152.838 36.6183 152.87 36.6238 152.899 36.6357C152.928 36.6475 152.955 36.6654 152.976 36.6881C152.998 36.7108 153.015 36.738 153.025 36.7676C153.036 36.7973 153.04 36.8289 153.038 36.8603C152.969 37.2271 152.859 37.5851 152.711 37.9272L152.153 39.3896C152.066 39.5926 152.008 39.8067 151.981 40.0257C151.981 40.1119 152.009 40.1702 152.085 40.1904C152.287 40.1499 152.807 39.6025 152.845 39.5163C152.865 39.4884 152.903 39.4884 152.951 39.534L153.027 39.6025C153.065 39.6506 153.076 39.6709 153.048 39.7165C153.02 39.7621 152.219 40.7302 151.421 40.7302C151.324 40.7302 151.258 40.6491 151.258 40.4946ZM152.47 34.886C152.47 34.8206 152.483 34.7558 152.509 34.6957C152.535 34.6355 152.572 34.5813 152.62 34.5362C152.667 34.4912 152.723 34.4562 152.785 34.4336C152.846 34.4109 152.911 34.401 152.977 34.4045C153.041 34.4 153.105 34.4085 153.165 34.4295C153.226 34.4506 153.281 34.4836 153.329 34.5267C153.376 34.5698 153.414 34.6221 153.441 34.6804C153.468 34.7386 153.482 34.8017 153.484 34.8657C153.477 34.9957 153.421 35.1182 153.326 35.2079C153.232 35.2975 153.107 35.3474 152.977 35.3473C152.913 35.3521 152.848 35.3438 152.788 35.323C152.727 35.3021 152.671 35.269 152.624 35.2259C152.576 35.1827 152.538 35.1303 152.512 35.0718C152.485 35.0134 152.471 34.9502 152.47 34.886Z" fill="white"/>
<path d="M154.089 40.6384C153.983 40.6384 153.965 40.6206 153.983 40.5522L154.667 38.7782C154.874 38.3082 155.044 37.8227 155.174 37.326C155.174 37.2271 155.136 37.1612 155.029 37.1612C154.847 37.1612 154.386 37.6225 154.224 37.805C154.193 37.8354 154.165 37.8354 154.125 37.805L154.039 37.7163C154.001 37.6782 153.99 37.6605 154.021 37.62C154.165 37.4476 154.875 36.6493 155.569 36.6493C155.607 36.6483 155.644 36.6547 155.679 36.6682C155.715 36.6816 155.747 36.7019 155.774 36.7278C155.801 36.7537 155.823 36.7847 155.839 36.8191C155.854 36.8534 155.862 36.8905 155.863 36.9281C155.863 37.2246 155.45 38.1395 155.374 38.3625L155.412 38.3803C155.701 37.919 156.75 36.6392 157.607 36.6392C157.896 36.6392 158.088 36.7836 158.088 37.0345C158.088 37.4578 157.865 37.957 157.549 38.7376C157.346 39.1651 157.182 39.6094 157.057 40.0656C157.056 40.0816 157.058 40.0975 157.064 40.1126C157.069 40.1276 157.077 40.1414 157.088 40.153C157.099 40.1647 157.112 40.1739 157.127 40.1803C157.142 40.1866 157.158 40.1898 157.174 40.1898C157.318 40.1898 157.741 39.835 157.865 39.6981C157.873 39.6916 157.883 39.687 157.893 39.6845C157.903 39.682 157.913 39.6817 157.923 39.6836C157.933 39.6855 157.943 39.6896 157.951 39.6956C157.96 39.7017 157.967 39.7094 157.972 39.7184L158.04 39.7944C158.078 39.835 158.088 39.8527 158.04 39.9009C157.926 40.0555 157.146 40.7398 156.502 40.7398C156.378 40.7398 156.271 40.6891 156.271 40.5446C156.271 40.4002 156.616 39.6018 156.915 38.7706C157.049 38.3955 157.397 37.5972 157.397 37.3843C157.397 37.2499 157.328 37.1638 157.143 37.1638C156.768 37.1638 155.815 38.0483 155.392 38.7325C155.152 39.1087 154.958 39.5119 154.814 39.9338L154.561 40.5801C154.543 40.6181 154.523 40.6359 154.426 40.6359L154.089 40.6384Z" fill="white"/>
<path d="M158.905 39.8513C158.905 38.5435 159.974 36.6377 161.089 36.6377C161.162 36.6313 161.236 36.6408 161.305 36.6655C161.374 36.6902 161.436 36.7296 161.489 36.7809C161.541 36.8322 161.582 36.8942 161.608 36.9627C161.634 37.0311 161.644 37.1044 161.639 37.1775C161.635 37.2815 161.592 37.3802 161.519 37.4545C161.446 37.5289 161.348 37.5737 161.244 37.5805C161.183 37.5812 161.124 37.5602 161.078 37.5211C161.031 37.482 161 37.4275 160.991 37.3676C160.972 37.3 160.934 37.2395 160.881 37.1942C160.827 37.1489 160.761 37.121 160.692 37.1141C160.451 37.1141 160.2 37.3448 159.99 37.7781C159.758 38.3118 159.617 38.8807 159.574 39.461C159.574 40.163 159.787 40.2593 159.959 40.2593C160.334 40.2593 160.702 39.8741 160.806 39.7397C160.836 39.7017 160.864 39.684 160.894 39.7017L160.998 39.798C161.029 39.8183 161.049 39.8462 160.998 39.9045C160.864 40.1072 160.238 40.7332 159.612 40.7332C159.285 40.7307 158.905 40.495 158.905 39.8513Z" fill="white"/>
<path d="M161.91 39.7926C161.91 38.9842 162.44 37.9755 163.142 37.2811C163.449 36.9744 163.971 36.6374 164.432 36.6374C164.502 36.6318 164.572 36.6407 164.639 36.6637C164.705 36.6866 164.766 36.7231 164.817 36.7707C164.868 36.8183 164.909 36.8761 164.937 36.9404C164.965 37.0047 164.98 37.0741 164.98 37.1442C164.955 37.4136 164.86 37.6717 164.702 37.8917C164.545 38.1118 164.332 38.286 164.085 38.3962C163.649 38.6125 163.176 38.7457 162.691 38.789C162.597 39.0749 162.554 39.3752 162.564 39.6761C162.558 39.7491 162.566 39.8228 162.587 39.8928C162.609 39.9629 162.645 40.0279 162.692 40.0841C162.739 40.1404 162.797 40.1868 162.862 40.2208C162.927 40.2547 162.998 40.2754 163.071 40.2818C163.295 40.2643 163.512 40.1929 163.702 40.0738C163.893 39.9546 164.052 39.7913 164.166 39.5975C164.186 39.5696 164.214 39.5493 164.255 39.5975L164.359 39.6837C164.407 39.7115 164.407 39.7394 164.359 39.7698C164.118 40.1069 163.54 40.743 162.8 40.743C162.179 40.7304 161.91 40.4288 161.91 39.7926ZM162.767 38.5128C163.104 38.5432 164.364 38.1377 164.364 37.4256C164.364 37.2329 164.267 37.0606 164.057 37.0606C163.441 37.0606 162.843 38.1681 162.767 38.5128Z" fill="white"/>
<path d="M167.724 40.38C167.724 40.3217 167.77 40.3141 167.838 40.3141H168.345C168.682 40.3141 168.895 40.2736 169.106 39.8224C169.154 39.7059 169.359 39.1483 169.569 38.4463L170.117 36.6722C170.233 36.3611 170.33 36.0428 170.406 35.7193C170.406 35.6154 170.368 35.5368 170.251 35.5368C170.044 35.581 169.844 35.6526 169.655 35.7497L169.149 35.9702C169.138 35.9777 169.126 35.9829 169.113 35.9856C169.1 35.9882 169.087 35.9883 169.074 35.9857C169.061 35.983 169.049 35.9779 169.039 35.9704C169.028 35.963 169.019 35.9534 169.012 35.9423L168.936 35.7877C168.918 35.7396 168.936 35.7117 169.004 35.6712L171.169 34.5358C171.258 34.4851 171.356 34.4523 171.457 34.4395C171.484 34.4393 171.51 34.4491 171.529 34.467C171.549 34.4848 171.561 34.5093 171.564 34.5358C171.552 34.6241 171.526 34.7097 171.485 34.7892C171.457 34.8652 171.034 36.0564 170.725 37.022L170.188 38.7023C170.033 39.1736 169.879 39.6856 169.83 39.8478C169.706 40.195 169.782 40.3116 170.243 40.3116H170.75C170.809 40.3116 170.819 40.3471 170.809 40.4053L170.771 40.6081C170.771 40.6562 170.75 40.6664 170.684 40.6664L169.126 40.636C168.981 40.636 167.778 40.6664 167.702 40.6664C167.693 40.6665 167.685 40.6646 167.678 40.6608C167.67 40.6571 167.664 40.6516 167.659 40.6449C167.655 40.6381 167.652 40.6303 167.651 40.6222C167.65 40.614 167.65 40.6057 167.653 40.598L167.724 40.38Z" fill="white"/>
<path d="M176.99 36.0698C176.99 38.2646 174.911 40.2464 173.188 40.7381C173.129 40.7596 173.068 40.7749 173.006 40.7837C172.972 40.7838 172.939 40.7711 172.914 40.748C172.889 40.725 172.874 40.6934 172.871 40.6595C172.869 40.6343 172.874 40.6089 172.886 40.5867C172.898 40.5645 172.917 40.5466 172.94 40.5354C174.099 40.043 175.053 39.1658 175.641 38.0517L175.624 38.0314C175.483 38.1574 175.319 38.2532 175.14 38.3129C174.961 38.3726 174.772 38.395 174.585 38.3786C173.497 38.3786 173.277 37.3294 173.277 36.9442C173.277 35.8113 174.171 34.4326 175.545 34.4326C176.528 34.4326 176.99 35.0789 176.99 36.0698ZM174.017 37.0329C174.017 37.4739 174.22 38.0238 174.815 38.0238C175.012 38.0156 175.204 37.9649 175.379 37.8752C175.554 37.7855 175.707 37.659 175.829 37.5043C176.164 36.9997 176.34 36.4067 176.336 35.8012C176.336 35.3957 176.222 34.7596 175.507 34.7596C174.458 34.7596 174.017 36.2903 174.017 37.0329Z" fill="white"/>
<path d="M182.167 34.5764C182.226 34.5764 182.254 34.5967 182.254 34.655C182.254 34.7133 182.254 34.7133 182.206 34.769C182.157 34.8248 181.369 36.1655 181.273 36.3479C181.177 36.5304 179.56 39.5615 179.299 40.1115C179.154 40.4181 178.982 40.7831 178.723 40.7831C178.682 40.787 178.641 40.7818 178.602 40.7678C178.563 40.7538 178.528 40.7312 178.498 40.7019C178.469 40.6725 178.447 40.6371 178.433 40.5981C178.42 40.5591 178.415 40.5175 178.419 40.4764C178.448 40.3084 178.518 40.1501 178.622 40.0151C178.68 39.9264 179.661 38.4945 180.143 37.6481C180.396 37.1944 181.364 35.4812 181.536 35.2227H179.686C178.956 35.2227 178.812 35.5775 178.485 36.0109C178.445 36.0691 178.389 36.0691 178.31 36.0109C178.232 35.9526 178.234 35.9348 178.265 35.8765L179.025 34.3559C179.083 34.252 179.093 34.2317 179.19 34.2698C179.286 34.3078 179.266 34.328 179.256 34.4041C179.238 34.5587 179.344 34.5865 179.661 34.5865L182.167 34.5764Z" fill="white"/>
<path d="M182.446 40.38C182.446 40.3217 182.494 40.3141 182.563 40.3141H183.07C183.407 40.3141 183.617 40.2736 183.83 39.8224C183.878 39.7059 184.071 39.1483 184.291 38.4463L184.841 36.6722C184.958 36.3611 185.054 36.0428 185.13 35.7193C185.13 35.6154 185.092 35.5368 184.976 35.5368C184.768 35.5813 184.567 35.6529 184.377 35.7497L183.871 35.9702C183.86 35.9777 183.848 35.9829 183.835 35.9856C183.822 35.9882 183.809 35.9883 183.796 35.9857C183.783 35.983 183.771 35.9779 183.76 35.9704C183.75 35.963 183.741 35.9534 183.734 35.9423L183.658 35.7877C183.637 35.7396 183.658 35.7117 183.724 35.6712L185.89 34.5358C185.979 34.4845 186.078 34.4517 186.179 34.4395C186.206 34.4393 186.232 34.4491 186.251 34.467C186.271 34.4848 186.283 34.5093 186.286 34.5358C186.274 34.6241 186.247 34.7097 186.207 34.7892C186.179 34.8652 185.756 36.0564 185.447 37.022L184.91 38.7023C184.758 39.1736 184.603 39.6856 184.555 39.8478C184.431 40.195 184.507 40.3116 184.968 40.3116H185.475C185.533 40.3116 185.543 40.3471 185.533 40.4053L185.495 40.6081C185.495 40.6562 185.475 40.6664 185.406 40.6664L183.85 40.636C183.703 40.636 182.502 40.6664 182.426 40.6664C182.35 40.6664 182.368 40.636 182.375 40.598L182.446 40.38Z" fill="white"/>
<path d="M193.347 37.2479H219.509C219.565 37.2479 219.58 37.1313 219.509 37.1313H193.354C193.296 37.1313 193.281 37.2479 193.354 37.2479H193.347Z" fill="white"/>
<path d="M6.58938 37.2479H32.7415C32.7972 37.2479 32.815 37.1313 32.7415 37.1313H6.58938C6.53109 37.1313 6.51588 37.2479 6.58938 37.2479Z" fill="white"/>
</svg>
